<svg width="84" height="60" viewBox="0 0 84 60" fill="none" xmlns="http://www.w3.org/2000/svg">
<path d="M12.2724 44.7757C12.6252 44.8177 12.9864 44.8513 13.356 44.8513C17.7576 44.8513 22.134 41.6425 25.0404 39.2233C26.3424 38.1397 27.51 37.5938 28.518 37.5938C29.5008 37.5938 30.2064 38.1649 30.6348 38.6605C30.0552 39.4165 29.5512 40.3237 29.106 41.2477C27.2076 43.2889 24.8136 45.0613 22.9908 45.7501C19.3452 48.6061 20.7396 53.5873 21.588 54.0157C21.9324 54.1837 22.4448 54.2257 22.932 54.3601C22.7388 55.5361 22.7304 56.5777 22.8396 57.3841C21.1344 57.4261 18.5472 56.4265 18.4296 56.2669C18.2448 56.0233 15.9936 48.5473 17.5812 45.8089C19.1604 43.0705 10.5924 51.0337 10.4076 53.8897C10.2228 56.7457 13.2216 53.9569 13.2216 57.1825C13.2216 58.2577 8.36637 57.6361 6.63597 57.0901C6.13197 56.9305 5.77077 55.1749 6.34196 54.3769C7.78676 52.3609 10.0968 48.4633 12.2724 44.7757Z" fill="#323E7D"/>
<path d="M59.6484 58.5769C59.4132 59.7361 53.9364 60.0973 53.7516 56.8129C53.7516 56.8129 53.6844 55.6957 53.6088 53.9989C53.8692 53.6545 54.1128 53.3437 54.2892 53.1169C54.642 52.6801 54.9528 52.2769 55.188 51.9409C55.314 51.7645 55.4148 51.5965 55.5156 51.4369C55.7256 51.1009 55.8432 50.9245 56.1624 50.8237C56.1036 52.3693 56.1036 53.6713 56.1876 54.3769C56.1792 54.3853 59.6484 54.3853 59.6484 58.5769Z" fill="#323E7D"/>
<path d="M13.314 36.5774L13.5156 36.7538C13.9104 37.0898 14.3136 37.3586 14.7336 37.577C13.8936 38.039 12.9276 38.5346 11.8692 38.9798C10.9788 38.4002 10.3992 37.3838 10.1976 36.4094C9.93724 35.1662 10.1976 33.6038 11.6928 32.9654C12.5664 32.5874 13.3308 32.4026 13.9608 32.4026C14.1372 32.4026 14.2968 32.4194 14.4396 32.4446C13.9356 32.705 13.482 33.083 13.1796 33.5786C12.894 34.0574 12.5076 35.0486 13.188 36.3422L13.314 36.5774Z" fill="#323E7D"/>
<path d="M66.6792 28.5301L64.2852 29.8657C63.4956 30.3613 60.3708 33.0493 59.5308 33.8473C58.6572 34.6453 56.8932 35.9893 54.8436 35.9893C54.1884 35.9893 53.55 35.8465 52.9452 35.5609C49.308 33.2593 45.6204 32.0833 41.9832 32.0833C39.102 32.0833 36.3384 32.8225 33.7596 34.2841C31.7184 32.8309 29.8788 32.1421 28.0476 32.1421C25.6704 32.1421 23.604 33.2509 21.1596 34.9393C21.168 34.9225 21.1512 34.8973 21.1596 34.8805C21.9828 32.6293 21.3192 30.2017 19.5384 28.6981C18.8076 28.0849 17.934 27.6229 16.8336 27.3205C25.872 14.9389 44.4108 19.7437 48.2832 19.5001C52.1724 19.2565 60.1944 17.9209 67.242 7.1017C67.242 7.1017 68.2164 1.3897 70.1568 0.600098C70.1568 0.600098 71.7024 3.1537 71.526 5.7997C71.526 5.7997 77.2716 6.5305 77.1792 10.7221C79.1868 12.5449 82.74 13.3681 83.1096 13.6369C83.4708 13.9141 82.0176 18.2821 75.2724 17.7361C75.2724 17.7361 71.6688 24.1873 66.6792 30.1261V28.5301Z" fill="#323E7D"/>
<path d="M4.09078 35.939C4.14118 36.7034 4.26717 37.5266 4.51917 38.4338L4.56117 38.5934L4.63678 38.7362C4.95598 39.3242 5.29198 39.8534 5.64478 40.3574C3.94798 40.2818 2.33518 39.7106 0.999577 38.3498C0.361176 36.9218 1.71358 36.6362 4.09078 35.939Z" fill="#323E7D"/>
<path d="M16.2456 38.0894C16.3884 38.1146 16.5396 38.1482 16.6824 38.1566C16.5816 38.2322 16.4724 38.3078 16.3632 38.375C16.2036 38.4842 16.044 38.5766 15.8844 38.669C16.0104 38.4758 16.1364 38.2742 16.2456 38.0894Z" fill="#323E7D"/>
<path d="M13.86 28.3621C14.5319 28.3621 15.1787 28.4461 15.8003 28.5553C16.9763 28.7737 18.0179 29.1769 18.7151 29.7649C21.4703 32.1001 19.8995 36.5521 17.1023 36.7453C17.0351 36.7453 16.9764 36.7621 16.9176 36.7621C16.7076 36.7621 16.4891 36.7285 16.2623 36.6781C15.6827 36.5437 15.0611 36.2329 14.4311 35.6869C13.5743 34.0489 15.4475 33.3433 16.3463 33.3433C16.4975 33.3433 16.6236 33.3685 16.7076 33.4021C16.7244 33.4105 16.7411 33.4189 16.7579 33.4189C17.1107 33.4189 16.6572 30.9913 13.9692 30.9913C13.7759 30.9913 13.5827 30.9997 13.3643 31.0249C12.7343 31.1005 11.9952 31.3021 11.1468 31.6633C10.0044 32.1505 9.30715 33.0241 8.97115 34.0321C8.35795 35.8465 8.94595 38.1229 10.374 39.5341C11.172 40.3237 12.222 40.8445 13.4736 40.8445C13.86 40.8445 14.2716 40.7773 14.6916 40.6765C15.4728 40.4833 16.2959 40.1221 17.178 39.5173C21.924 36.2077 24.8136 33.5365 28.056 33.5365C29.736 33.5365 31.5168 34.2505 33.684 35.9557C36.3132 34.2841 39.1356 33.4777 42.0084 33.4777C45.402 33.4777 48.9216 34.6033 52.332 36.7789C53.2056 37.1989 54.1296 37.3753 54.978 37.3753C57.1872 37.3753 59.3376 36.1489 60.7404 34.8637C60.7404 34.8637 63.8904 31.4869 65.2848 31.0333V31.7137V32.6293V33.2173C65.2848 33.2173 67.5444 33.4021 68.0316 35.3761C68.5188 37.3501 69.468 37.1401 68.6532 38.4757C68.124 39.3409 67.3008 39.7189 66.1836 39.7189C65.5704 39.7189 64.8648 39.6013 64.0752 39.3829C63.9744 39.3577 63.882 39.3409 63.7812 39.3409C61.7232 39.3409 60.4296 45.3721 63.6888 47.3713C67.0908 49.4713 68.46 50.2105 68.46 55.4101C68.46 55.4101 68.2752 55.5949 67.956 55.5949C67.6872 55.5949 67.326 55.4605 66.906 54.9565C65.9904 53.8645 68.544 50.5801 60.3876 49.5301C59.1024 49.3873 58.1196 49.3201 57.3636 49.3201C56.9016 49.3201 56.5404 49.3537 56.2296 49.4041C54.8184 49.6141 54.6588 50.2693 54.054 51.1345C53.9112 51.3445 53.7264 51.5797 53.5248 51.8401C52.4076 53.2681 50.6604 55.3345 50.82 56.6029C51.0048 58.1065 52.0968 57.1489 52.0968 58.2913C52.0968 58.8121 51.4332 59.0305 50.6856 59.0305C49.812 59.0305 48.8292 58.7365 48.678 58.2913C48.4008 57.4681 48.5856 54.6877 49.8204 52.8649C51.0552 51.0421 52.0044 48.2197 47.1744 47.6233C46.1748 47.4973 45.3684 47.4301 44.7132 47.4301C42.1848 47.4301 41.7899 48.4297 40.7064 51.1765C39.3372 54.6373 41.8908 55.5949 42.8904 57.1069C43.302 57.5605 43.3944 58.3417 43.1676 58.4761C43.1676 58.4761 42.7308 58.7281 42.1092 58.7281C41.5884 58.7281 40.9416 58.5517 40.3116 57.8965C38.9424 56.4685 37.0104 53.5957 36.834 51.5461C36.666 49.6813 37.1028 46.6153 35.8848 46.6153C35.7588 46.6153 35.6244 46.6489 35.4648 46.7161C33.7344 47.4469 34.692 49.5385 28.812 51.4537C25.578 53.0497 26.5356 56.4685 27.1236 57.1993C27.72 57.9301 27.804 57.8797 27.6276 58.6105C27.5604 58.8877 27.1656 59.0221 26.6783 59.0221C25.8888 59.0221 24.8471 58.6777 24.486 58.0645C24.36 57.8461 24.2508 57.4177 24.2088 56.8381C24.1752 56.4349 24.1752 55.9645 24.2256 55.4353C24.4272 53.1337 25.4856 49.7653 28.686 46.6237C28.686 46.6237 30.1476 40.8781 32.424 38.7865C32.424 38.7865 32.1636 38.2657 31.668 37.6945C31.0464 36.9889 30.03 36.1909 28.56 36.1909C27.3924 36.1909 25.9391 36.6949 24.1919 38.1481C20.9244 40.8613 17.0519 43.4485 13.3979 43.4485C13.2971 43.4485 13.1964 43.4317 13.0956 43.4317C11.0628 43.3561 9.10555 42.4321 7.36675 40.2649C6.86275 39.6349 6.36715 38.9125 5.89675 38.0557C5.64475 37.1233 5.52715 36.2749 5.51035 35.4937C5.37595 30.4369 9.89515 28.3621 13.86 28.3621Z" fill="#323E7D"/>
</svg>
