<svg width="51" height="43" viewBox="0 0 51 43" fill="none" xmlns="http://www.w3.org/2000/svg">
<path d="M14.4785 6.14291C8.33396 9.51167 3.07458 12.382 2.79099 12.5195C2.20232 12.8031 1.9574 12.9664 1.57497 13.3488C0.539427 14.3628 0.00661457 15.9054 0.148411 17.4695C0.264427 18.7542 0.65974 19.6437 1.49333 20.4816L1.9574 20.9499L1.6781 21.2078C1.15388 21.6847 0.689818 22.398 0.432005 23.1242C0.0452864 24.207 0.0280989 25.5562 0.393333 26.6777C0.633958 27.4253 1.16247 28.2289 1.71677 28.6843L1.98747 28.9078L1.8113 29.0624C0.990599 29.7499 0.432005 30.764 0.208568 31.9628C0.12263 32.4269 0.114036 33.3249 0.19138 33.8105C0.492161 35.7226 1.72536 37.1105 3.53005 37.5703C3.71482 37.6175 4.8406 37.8667 6.03513 38.1246C7.98591 38.5499 17.0996 40.5523 25.1562 42.3226C27.5926 42.8597 28.2328 42.9886 28.4218 42.9714C28.6453 42.9542 29.3328 42.5718 39.6152 36.7839C48.2176 31.9414 50.598 30.5835 50.6968 30.4632C50.8816 30.2355 50.9074 29.8703 50.7527 29.6124C50.5465 29.2558 50.1039 29.1312 49.7215 29.3246C49.6226 29.3761 44.7672 32.1046 38.9277 35.3917C33.0926 38.6789 28.2843 41.373 28.2457 41.3816C28.207 41.3945 25.7449 40.866 22.7672 40.2128C19.7937 39.5597 15.9093 38.7046 14.1347 38.3179C12.3644 37.9269 9.54997 37.3082 7.88279 36.9429C6.2156 36.5777 4.58708 36.221 4.26052 36.1523C3.42693 35.9761 3.03591 35.7871 2.57615 35.3187C2.03904 34.7816 1.78552 34.2144 1.69529 33.3507C1.61365 32.5945 1.73396 31.9027 2.06052 31.2324C2.44294 30.4417 3.0531 29.9175 3.74919 29.7714L4.03279 29.7113L7.06208 30.3773C8.72927 30.7425 12.0679 31.4773 14.4785 32.0058C24.1207 34.1242 26.759 34.7042 27.498 34.8675C27.9793 34.9749 28.3359 35.0351 28.4433 35.0222C28.5722 35.0093 31.3222 33.4796 39.5465 28.8519C45.5578 25.466 50.5207 22.6687 50.5722 22.6343C50.6238 22.6042 50.7097 22.4968 50.7613 22.398C50.8859 22.1789 50.873 21.7835 50.7355 21.5945C50.5121 21.2894 50.134 21.1777 49.8117 21.3152C49.7086 21.3624 44.823 24.1039 38.9492 27.4124C31.7605 31.4558 28.2371 33.4195 28.164 33.4152C28.1039 33.4109 25.9125 32.9339 23.2871 32.3582C20.666 31.7781 15.2691 30.5964 11.2988 29.7285C7.32849 28.8605 3.92536 28.1042 3.7363 28.0484C2.72654 27.7519 2.02615 26.9656 1.75974 25.8312C1.66091 25.4187 1.66091 24.5593 1.75544 24.1253C1.9531 23.2273 2.44294 22.4753 3.10036 22.0585C3.38826 21.8738 3.84372 21.7406 4.09294 21.7707C4.26482 21.7878 6.18982 22.2089 14.5773 24.0566C15.2691 24.2113 15.9051 24.3359 15.9867 24.3359C16.1715 24.3359 16.4379 24.2027 16.5539 24.0566C16.8332 23.6999 16.7472 23.1542 16.3777 22.9222C16.2875 22.8664 14.9597 22.557 12.416 21.9984C10.3105 21.5343 7.83982 20.9929 6.91599 20.791C5.99646 20.5847 4.88357 20.3441 4.45388 20.2539C3.40544 20.0304 3.06599 19.8714 2.57615 19.3773C2.03904 18.8402 1.78982 18.2816 1.69529 17.4179C1.64372 16.941 1.6824 16.4124 1.8113 15.9355C1.91013 15.5531 2.21951 14.9386 2.45583 14.6593C2.80818 14.2339 3.39685 13.8515 3.69763 13.8515C3.76638 13.8515 4.59138 14.0148 5.5238 14.2167C25.7707 18.5652 28.2843 19.098 28.4433 19.0808C28.5722 19.0679 31.2664 17.5683 39.5422 12.9148C45.5492 9.52885 50.5078 6.73589 50.5636 6.69721C50.7183 6.59838 50.8515 6.32338 50.8515 6.10424C50.8515 5.77768 50.7183 5.54135 50.4562 5.40385C50.3961 5.37378 48.7633 4.99995 46.8254 4.57455C44.8918 4.14917 41.0676 3.30698 38.3261 2.70541C35.5847 2.10385 31.709 1.25307 29.7066 0.814789C27.6613 0.363617 25.9812 0.0155716 25.8609 0.0155716C25.6633 0.0155716 25.0359 0.355026 14.4785 6.14291Z" fill="#323E7D"/>
<path d="M49.7558 13.366C49.6871 13.4003 44.8144 16.1417 38.932 19.4503L28.2371 25.466L27.8246 25.38C27.5968 25.3328 26.4195 25.075 25.2035 24.8085C23.2011 24.3703 22.982 24.3273 22.8316 24.3746C22.1484 24.5808 22.041 25.4703 22.664 25.7882C22.8875 25.9 28.0781 27.0472 28.3703 27.0515C28.4906 27.0515 28.6367 27.0085 28.8 26.9226C28.9332 26.8496 33.8875 24.0652 39.8086 20.7351C48.2992 15.9527 50.598 14.6421 50.6968 14.5218C50.8773 14.3027 50.9031 13.9375 50.7613 13.6796C50.5679 13.3359 50.091 13.1898 49.7558 13.366Z" fill="#323E7D"/>
<path d="M17.8086 23.5237C17.8086 26.7421 17.8215 27.5585 17.8645 27.5327C17.8902 27.5112 18.3027 27.2577 18.7711 26.9655L19.6262 26.4327L19.8238 26.6561C20.5887 27.5112 21.5727 28.5854 21.6027 28.5854C21.6199 28.5897 21.6328 26.6776 21.6328 24.3444V20.0948L19.7766 19.7854C18.7539 19.6179 17.8902 19.4804 17.8645 19.4804C17.8215 19.4804 17.8086 20.3183 17.8086 23.5237Z" fill="#323E7D"/>
</svg>
