<svg width="53" height="56" viewBox="0 0 53 56" fill="none" xmlns="http://www.w3.org/2000/svg">
<path d="M24.25 0.812521H1.74999C1.61987 0.811641 1.49098 0.83786 1.37155 0.889509C1.25211 0.941158 1.14473 1.01711 1.05624 1.11252C0.883771 1.30833 0.796099 1.5646 0.812494 1.82502L2.68749 24.325C2.70639 24.5604 2.81344 24.7801 2.98725 24.94C3.16106 25.0999 3.38882 25.1883 3.62499 25.1875H12.0625V28.9375H10.1875C9.93885 28.9375 9.7004 29.0363 9.52458 29.2121C9.34877 29.3879 9.24999 29.6264 9.24999 29.875V54.25C9.24999 54.4987 9.34877 54.7371 9.52458 54.9129C9.7004 55.0887 9.93885 55.1875 10.1875 55.1875H15.8125C16.0611 55.1875 16.2996 55.0887 16.4754 54.9129C16.6512 54.7371 16.75 54.4987 16.75 54.25V29.875C16.75 29.6264 16.6512 29.3879 16.4754 29.2121C16.2996 29.0363 16.0611 28.9375 15.8125 28.9375H13.9375V25.1875H22.375C22.6112 25.1883 22.8389 25.0999 23.0127 24.94C23.1866 24.7801 23.2936 24.5604 23.3125 24.325L25.1875 1.82502C25.2039 1.5646 25.1162 1.30833 24.9437 1.11252C24.8553 1.01711 24.7479 0.941158 24.6284 0.889509C24.509 0.83786 24.3801 0.811641 24.25 0.812521ZM14.4062 45.8125C14.6687 45.8125 14.875 46.2344 14.875 46.75C14.875 47.2656 14.6687 47.6875 14.4062 47.6875H11.5937C11.3312 47.6875 11.125 47.2656 11.125 46.75C11.125 46.2344 11.3312 45.8125 11.5937 45.8125H14.4062ZM15.8125 6.43752H6.43749C6.18885 6.43752 5.9504 6.33875 5.77458 6.16293C5.59877 5.98712 5.49999 5.74866 5.49999 5.50002C5.49999 5.25138 5.59877 5.01292 5.77458 4.83711C5.9504 4.66129 6.18885 4.56252 6.43749 4.56252H15.8125C16.0611 4.56252 16.2996 4.66129 16.4754 4.83711C16.6512 5.01292 16.75 5.25138 16.75 5.50002C16.75 5.74866 16.6512 5.98712 16.4754 6.16293C16.2996 6.33875 16.0611 6.43752 15.8125 6.43752Z" fill="#323E7D"/>
<path d="M51.7656 38.1062L42.0625 30.3531V27.0625H43.9375C44.1862 27.0625 44.4246 26.9637 44.6004 26.7879C44.7762 26.6121 44.875 26.3736 44.875 26.125V1.75C44.875 1.50136 44.7762 1.2629 44.6004 1.08709C44.4246 0.911272 44.1862 0.8125 43.9375 0.8125H38.3125C38.0639 0.8125 37.8254 0.911272 37.6496 1.08709C37.4738 1.2629 37.375 1.50136 37.375 1.75V26.125C37.375 26.3736 37.4738 26.6121 37.6496 26.7879C37.8254 26.9637 38.0639 27.0625 38.3125 27.0625H40.1875V30.3531L30.4844 38.1062C30.3022 38.2523 30.1811 38.461 30.1447 38.6916C30.1082 38.9222 30.1592 39.1581 30.2875 39.3531L40.3375 54.7656C40.4225 54.8972 40.5391 55.0054 40.6767 55.0803C40.8142 55.1552 40.9684 55.1945 41.125 55.1945C41.2817 55.1945 41.4358 55.1552 41.5734 55.0803C41.7109 55.0054 41.8275 54.8972 41.9125 54.7656L51.9625 39.3531C52.0908 39.1581 52.1418 38.9222 52.1054 38.6916C52.069 38.461 51.9478 38.2523 51.7656 38.1062ZM39.7188 10.1875C39.4563 10.1875 39.25 9.76562 39.25 9.25C39.25 8.73438 39.4563 8.3125 39.7188 8.3125H42.5313C42.7938 8.3125 43 8.73438 43 9.25C43 9.76562 42.7938 10.1875 42.5313 10.1875H39.7188ZM47.5 44.125L43 50.125C42.9261 50.2235 42.8336 50.3065 42.7277 50.3692C42.6217 50.4319 42.5045 50.4732 42.3826 50.4906C42.2607 50.508 42.1366 50.5012 42.0173 50.4707C41.8981 50.4401 41.786 50.3864 41.6875 50.3125C41.589 50.2386 41.506 50.1461 41.4433 50.0401C41.3806 49.9342 41.3393 49.817 41.3219 49.6951C41.3045 49.5732 41.3113 49.4491 41.3418 49.3298C41.3724 49.2106 41.4262 49.0985 41.5 49L46 43C46.1492 42.8011 46.3713 42.6696 46.6174 42.6344C46.8636 42.5993 47.1136 42.6633 47.3125 42.8125C47.5114 42.9617 47.6429 43.1838 47.6781 43.4299C47.7133 43.6761 47.6492 43.9261 47.5 44.125Z" fill="#323E7D"/>
</svg>
