<svg width="45" height="43" viewBox="0 0 45 43" fill="none" xmlns="http://www.w3.org/2000/svg">
<path d="M37.3959 4.75008C37.3959 3.64551 36.5004 2.75008 35.3959 2.75008H31.802C31.0944 2.75008 30.5209 3.32365 30.5209 4.03118C30.5209 5.12898 29.2304 5.71828 28.4008 4.99931L23.8227 1.0318C23.0655 0.375514 21.9394 0.380958 21.1885 1.04454L1.29022 18.6291C0.0959985 19.6844 0.842456 21.6563 2.43617 21.6563C3.39192 21.6563 4.16671 22.4311 4.16671 23.3869V40.8543C4.16671 41.9588 5.06214 42.8542 6.16671 42.8542H9.04171C10.1463 42.8542 11.0417 41.9588 11.0417 40.8542V40.4841C11.0417 39.5075 10.2797 38.7179 9.50795 38.1194C8.89477 37.644 8.44706 36.9659 8.26587 36.1852C8.1678 35.7626 8.53336 35.397 8.95596 35.4951C9.0941 35.5271 9.22904 35.5675 9.36022 35.6157C9.97191 35.8403 11.0417 35.4172 11.0417 34.7656C11.0417 34.4443 10.8066 34.1764 10.5025 34.0725C9.39029 33.6927 8.53471 32.7602 8.26587 31.6019C8.1678 31.1793 8.53336 30.8137 8.95596 30.9117C9.0941 30.9438 9.22904 30.9842 9.36022 31.0324C9.97191 31.257 11.0417 30.8339 11.0417 30.1823C11.0417 29.8609 10.8066 29.5931 10.5025 29.4892C9.39029 29.1093 8.53471 28.1769 8.26587 27.0185C8.1678 26.5959 8.53336 26.2304 8.95596 26.3284C9.21062 26.3875 9.4544 26.4749 9.68384 26.5872C10.1746 26.8273 11.0417 26.4973 11.0417 25.9509C11.0417 25.7174 10.8894 25.5162 10.6922 25.3909C10.2141 25.0872 9.89587 24.5566 9.89587 23.948C9.89587 22.9987 10.6653 22.2292 11.6146 22.2292C12.5639 22.2292 13.3334 22.9987 13.3334 23.948C13.3334 24.5566 13.0152 25.0872 12.537 25.3909C12.3399 25.5162 12.1875 25.7174 12.1875 25.9509C12.1875 26.4973 13.0546 26.8273 13.5454 26.5872C13.7748 26.4749 14.0186 26.3875 14.2733 26.3284C14.6959 26.2304 15.0614 26.5959 14.9634 27.0185C14.6945 28.1769 13.839 29.1093 12.7267 29.4892C12.4226 29.5931 12.1875 29.8609 12.1875 30.1823C12.1875 30.8339 13.2573 31.257 13.869 31.0324C14.0002 30.9842 14.1351 30.9438 14.2733 30.9117C14.6959 30.8137 15.0614 31.1793 14.9634 31.6019C14.6945 32.7602 13.839 33.6927 12.7267 34.0725C12.4226 34.1764 12.1875 34.4443 12.1875 34.7656C12.1875 35.4172 13.2573 35.8403 13.869 35.6157C14.0002 35.5675 14.1351 35.5271 14.2733 35.4951C14.6959 35.397 15.0614 35.7626 14.9634 36.1852C14.7822 36.9659 14.3345 37.644 13.7213 38.1194C12.9495 38.7179 12.1875 39.5075 12.1875 40.4841V40.8542C12.1875 41.9588 13.083 42.8542 14.1875 42.8542H19.9271C21.0317 42.8542 21.9271 41.9588 21.9271 40.8542V40.4841C21.9271 39.5075 21.1651 38.7179 20.3934 38.1194C19.7802 37.644 19.3325 36.9659 19.1513 36.1852C19.0532 35.7626 19.4188 35.397 19.8414 35.4951C19.9795 35.5271 20.1145 35.5675 20.2456 35.6157C20.8573 35.8403 21.9271 35.4172 21.9271 34.7656C21.9271 34.4443 21.692 34.1764 21.3879 34.0725C20.2757 33.6927 19.4201 32.7602 19.1513 31.6019C19.0532 31.1793 19.4188 30.8137 19.8414 30.9117C19.9795 30.9438 20.1145 30.9842 20.2456 31.0324C20.8573 31.257 21.9271 30.8339 21.9271 30.1823C21.9271 29.8609 21.692 29.5931 21.3879 29.4892C20.2757 29.1093 19.4201 28.1769 19.1513 27.0185C19.0532 26.5959 19.4188 26.2304 19.8414 26.3284C20.096 26.3875 20.3398 26.4749 20.5693 26.5872C21.06 26.8273 21.9271 26.4973 21.9271 25.9509C21.9271 25.7174 21.7748 25.5162 21.5776 25.3909C21.0995 25.0872 20.7813 24.5566 20.7813 23.948C20.7813 22.9987 21.5507 22.2292 22.5 22.2292C23.4494 22.2292 24.2188 22.9987 24.2188 23.948C24.2188 24.5566 23.9006 25.0872 23.4224 25.3909C23.2253 25.5162 23.073 25.7174 23.073 25.9509C23.073 26.4973 23.94 26.8273 24.4308 26.5872C24.6603 26.4749 24.904 26.3875 25.1587 26.3284C25.5813 26.2304 25.9469 26.5959 25.8488 27.0185C25.58 28.1769 24.7244 29.1093 23.6121 29.4892C23.3081 29.5931 23.073 29.8609 23.073 30.1823C23.073 30.8339 24.1427 31.257 24.7544 31.0324C24.8856 30.9842 25.0206 30.9438 25.1587 30.9117C25.5813 30.8137 25.9469 31.1793 25.8488 31.6019C25.58 32.7602 24.7244 33.6927 23.6121 34.0725C23.3081 34.1764 23.073 34.4443 23.073 34.7656C23.073 35.4172 24.1427 35.8403 24.7544 35.6157C24.8856 35.5675 25.0206 35.5271 25.1587 35.4951C25.5813 35.397 25.9469 35.7626 25.8488 36.1852C25.6676 36.9659 25.2199 37.644 24.6067 38.1194C23.8349 38.7179 23.073 39.5075 23.073 40.4841V40.8542C23.073 41.9588 23.9684 42.8542 25.073 42.8542H30.8125C31.9171 42.8542 32.8125 41.9588 32.8125 40.8542V40.4841C32.8125 39.5075 32.0506 38.7179 31.2788 38.1194C30.6656 37.644 30.2179 36.9659 30.0367 36.1852C29.9386 35.7626 30.3042 35.397 30.7268 35.4951C30.8649 35.5271 30.9999 35.5675 31.1311 35.6157C31.7427 35.8403 32.8125 35.4172 32.8125 34.7656C32.8125 34.4443 32.5774 34.1764 32.2734 34.0725C31.1611 33.6927 30.3055 32.7602 30.0367 31.6019C29.9386 31.1793 30.3042 30.8137 30.7268 30.9117C30.8649 30.9438 30.9999 30.9842 31.1311 31.0324C31.7427 31.257 32.8125 30.8339 32.8125 30.1823C32.8125 29.8609 32.5774 29.5931 32.2734 29.4892C31.1611 29.1093 30.3055 28.1769 30.0367 27.0185C29.9386 26.5959 30.3042 26.2304 30.7268 26.3284C30.9815 26.3875 31.2252 26.4749 31.4547 26.5872C31.9455 26.8273 32.8125 26.4973 32.8125 25.9509C32.8125 25.7174 32.6602 25.5162 32.4631 25.3909C31.9849 25.0872 31.6667 24.5566 31.6667 23.948C31.6667 22.9987 32.4361 22.2292 33.3855 22.2292C34.3348 22.2292 35.1042 22.9987 35.1042 23.948C35.1042 24.5566 34.786 25.0872 34.3079 25.3909C34.1107 25.5162 33.9584 25.7174 33.9584 25.9509C33.9584 26.4973 34.8254 26.8273 35.3162 26.5872C35.5457 26.4749 35.7895 26.3875 36.0441 26.3284C36.4667 26.2304 36.8323 26.5959 36.7342 27.0185C36.4654 28.1769 35.6098 29.1093 34.4976 29.4892C34.1935 29.5931 33.9584 29.8609 33.9584 30.1823C33.9584 30.8339 35.0282 31.257 35.6399 31.0324C35.771 30.9842 35.906 30.9438 36.0441 30.9117C36.4667 30.8137 36.8323 31.1793 36.7342 31.6019C36.4654 32.7602 35.6098 33.6927 34.4976 34.0725C34.1935 34.1764 33.9584 34.4443 33.9584 34.7656C33.9584 35.4172 35.0282 35.8403 35.6399 35.6157C35.771 35.5675 35.906 35.5271 36.0441 35.4951C36.4667 35.397 36.8323 35.7626 36.7342 36.1852C36.553 36.9659 36.1053 37.644 35.4921 38.1194C34.7204 38.7179 33.9584 39.5075 33.9584 40.4841V40.8542C33.9584 41.9588 34.8538 42.8542 35.9584 42.8542H38.8334C39.9379 42.8542 40.8334 41.9588 40.8334 40.8542V23.4142C40.8334 22.4434 41.6204 21.6563 42.5912 21.6563C44.1976 21.6563 44.9624 19.6793 43.7742 18.5982L38.0499 13.3901C37.6333 13.0111 37.3959 12.474 37.3959 11.9108V4.75008ZM21.9271 2.75008C21.9271 2.43367 22.1836 2.17716 22.5 2.17716C22.8165 2.17716 23.073 2.43367 23.073 2.75008C23.073 3.06649 22.8165 3.323 22.5 3.323C22.1836 3.323 21.9271 3.06649 21.9271 2.75008ZM16.7709 13.0626C16.7709 12.7462 17.0274 12.4897 17.3438 12.4897H17.9167C18.2331 12.4897 18.4896 12.7462 18.4896 13.0626C18.4896 13.379 18.2331 13.6355 17.9167 13.6355H17.3438C17.0274 13.6355 16.7709 13.379 16.7709 13.0626ZM19.2997 15.9272C19.076 16.1509 18.7133 16.1509 18.4896 15.9272C18.2659 15.7035 18.2659 15.3408 18.4896 15.1171L18.8947 14.712C19.1184 14.4883 19.4811 14.4883 19.7048 14.712C19.9285 14.9357 19.9285 15.2984 19.7048 15.5221L19.2997 15.9272ZM24.7917 11.9167C24.7917 13.1823 23.7656 14.2084 22.5 14.2084C21.2345 14.2084 20.2084 13.1823 20.2084 11.9167C20.2084 11.6003 20.4649 11.3438 20.7813 11.3438H21.0677C21.5424 11.3438 21.9271 10.9591 21.9271 10.4845V5.04175C21.9271 4.72534 22.1836 4.46883 22.5 4.46883C22.8165 4.46883 23.073 4.72534 23.073 5.04175V10.4845C23.073 10.9591 23.4577 11.3438 23.9323 11.3438H24.2188C24.5352 11.3438 24.7917 11.6003 24.7917 11.9167ZM26.5105 15.9272C26.2868 16.1509 25.9241 16.1509 25.7003 15.9272L25.2953 15.5221C25.0716 15.2984 25.0716 14.9357 25.2953 14.712C25.519 14.4883 25.8817 14.4883 26.1054 14.712L26.5105 15.1171C26.7342 15.3408 26.7342 15.7035 26.5105 15.9272ZM28.2292 13.0626C28.2292 13.379 27.9727 13.6355 27.6563 13.6355H27.0834C26.767 13.6355 26.5105 13.379 26.5105 13.0626C26.5105 12.7462 26.767 12.4897 27.0834 12.4897H27.6563C27.9727 12.4897 28.2292 12.7462 28.2292 13.0626Z" fill="#323E7D"/>
</svg>
