<svg width="53" height="35" viewBox="0 0 53 35" fill="none" xmlns="http://www.w3.org/2000/svg">
<path d="M7.44116 31.5662H12.2218V34.725H7.44116V31.5662Z" fill="#323E7D"/>
<path d="M40.7412 31.0415H45.5218V34.195H40.7412V31.0415Z" fill="#323E7D"/>
<path d="M12.5292 19.8636C12.5292 19.8636 10.971 12.3111 7.54721 11.5691C5.55441 11.1398 2.79841 11.3995 1.25081 13.7103C-0.291486 16.0211 0.625413 19.4449 4.24531 21.1939C7.67971 22.8528 6.92711 29.3771 6.96951 30.3629C7.01721 31.778 45.6277 30.1509 45.6277 30.1509C45.6277 30.1509 46.4174 23.7538 47.4827 21.3847C48.6805 18.7188 52.4329 18.4909 52.4753 15.878C52.5389 11.8924 48.5798 9.72471 44.9546 11.6804C41.6845 13.4453 41.3877 19.4025 41.3877 19.4025L12.5292 19.8636Z" fill="#323E7D"/>
<path d="M43.1367 11.3943C45.8291 8.66483 50.5302 9.87853 49.4596 6.65083C47.8484 1.81193 41.7533 0.592927 36.7979 0.407427C26.5477 0.0205266 14.2782 0.402126 9.93745 1.92853C6.80515 3.03093 3.68345 5.59613 4.33535 9.04113C4.70105 10.9544 8.69725 8.63833 11.8667 13.1486L13.7111 18.2472L40.1474 17.5158C40.1422 17.5105 41.9018 12.6451 43.1367 11.3943Z" fill="#323E7D"/>
</svg>
