<?xml version="1.0" encoding="utf-8"?><svg xmlns="http://www.w3.org/2000/svg" xmlns:xlink="http://www.w3.org/1999/xlink"><symbol viewBox="0 0 492 492" xml:space="preserve" id="arrow-left" xmlns="http://www.w3.org/2000/svg">
    <path d="M198.608 246.104 382.664 62.04c5.068-5.056 7.856-11.816 7.856-19.024 0-7.212-2.788-13.968-7.856-19.032l-16.128-16.12C361.476 2.792 354.712 0 347.504 0s-13.964 2.792-19.028 7.864L109.328 227.008c-5.084 5.08-7.868 11.868-7.848 19.084-.02 7.248 2.76 14.028 7.848 19.112l218.944 218.932c5.064 5.072 11.82 7.864 19.032 7.864 7.208 0 13.964-2.792 19.032-7.864l16.124-16.12c10.492-10.492 10.492-27.572 0-38.06L198.608 246.104z" data-original="#000000"/>
</symbol><symbol viewBox="0 0 311 311.077" xml:space="preserve" id="close" xmlns="http://www.w3.org/2000/svg">
    <path d="M16.035 311.078c-4.097 0-8.195-1.558-11.308-4.695-6.25-6.25-6.25-16.383 0-22.633L283.789 4.687c6.25-6.25 16.383-6.25 22.633 0s6.25 16.383 0 22.637L27.363 306.383a16.045 16.045 0 0 1-11.328 4.695zm0 0" data-original="#000000"/>
    <path d="M295.117 311.078a15.879 15.879 0 0 1-11.308-4.695L4.727 27.324c-6.25-6.254-6.25-16.386 0-22.636s16.382-6.25 22.636 0L306.422 283.75c6.25 6.25 6.25 16.383 0 22.633-3.137 3.117-7.23 4.695-11.305 4.695zm0 0" data-original="#000000"/>
</symbol><symbol viewBox="0 0 511 512" xml:space="preserve" id="filter" xmlns="http://www.w3.org/2000/svg">
    <path d="M492.477 0H20.5C9.453 0 .5 8.953.5 20c0 55.695 23.875 108.867 65.504 145.871l87.59 77.852a71.265 71.265 0 0 1 23.898 53.222v195.032c0 15.937 17.813 25.492 31.09 16.636l117.996-78.66a20.005 20.005 0 0 0 8.906-16.64V296.945a71.265 71.265 0 0 1 23.899-53.222l87.586-77.852C488.598 128.867 512.473 75.695 512.473 20c0-11.047-8.953-20-19.996-20zm-72.082 135.973-87.586 77.855c-23.72 21.086-37.325 51.379-37.325 83.113V402.61l-77.996 51.996v-157.66a111.301 111.301 0 0 0-37.324-83.117l-87.586-77.851c-28.07-24.957-45.988-59.153-50.785-95.98H471.18c-4.797 36.827-22.711 71.023-50.785 95.976zm0 0" data-original="#000000"/>
</symbol><symbol viewBox="0 0 27 23" id="heart" xmlns="http://www.w3.org/2000/svg">
    <path d="M26.73 7.07c0 2.176-1.129 4.39-3.383 6.644l-9.196 8.862a.892.892 0 0 1-.651.264.892.892 0 0 1-.65-.264l-9.213-8.889a4.531 4.531 0 0 1-.405-.383c-.173-.178-.446-.5-.82-.967-.376-.467-.711-.947-1.005-1.439-.295-.491-.56-1.088-.791-1.787A6.467 6.467 0 0 1 .27 7.069c0-2.165.624-3.858 1.877-5.078C3.397.77 5.125.16 7.33.16c.61 0 1.233.104 1.868.315a7.617 7.617 0 0 1 1.771.856c.545.36 1.015.697 1.41 1.01.391.316.766.65 1.12 1.004.354-.354.726-.688 1.12-1.004.395-.316.865-.654 1.413-1.01a7.614 7.614 0 0 1 1.77-.856 5.914 5.914 0 0 1 1.87-.316c2.205 0 3.93.61 5.183 1.83 1.25 1.224 1.874 2.917 1.874 5.08Zm-1.89 0c0-.797-.105-1.502-.316-2.112-.213-.61-.483-1.096-.813-1.453a3.862 3.862 0 0 0-1.204-.877 5.315 5.315 0 0 0-1.388-.456 8.796 8.796 0 0 0-1.447-.12c-.51 0-1.064.128-1.652.376a7.628 7.628 0 0 0-1.631.945c-.497.38-.923.735-1.277 1.064-.354.33-.65.63-.886.907-.178.216-.418.324-.723.324s-.548-.108-.724-.324c-.235-.275-.53-.578-.886-.91-.353-.33-.78-.683-1.277-1.06a7.453 7.453 0 0 0-1.63-.946c-.592-.25-1.142-.378-1.653-.378-.513 0-.996.04-1.447.119a5.395 5.395 0 0 0-1.388.459 3.937 3.937 0 0 0-1.204.877c-.332.36-.6.846-.813 1.456-.216.607-.321 1.312-.321 2.108 0 1.653.92 3.403 2.762 5.244L13.5 20.58l8.564-8.254c1.85-1.85 2.776-3.601 2.776-5.257Z"/>
</symbol><symbol viewBox="0 0 12 12" id="left" xmlns="http://www.w3.org/2000/svg">
    <g clip-path="url(#ea)">
        <path d="m4.298 5.969 5.11-4.906a.753.753 0 0 0 0-1.092.804.804 0 0 0-1.108 0L2.627 5.423l-.02.016-.007.007-.008.006a.756.756 0 0 0-.233.5v.095c.012.184.09.363.233.5l.008.007.028.025L8.3 12.03c.307.295.8.295 1.107 0l-5.109-6.06Zm0 0 5.11 4.968c.312.3.312.792 0 1.092l-5.11-6.06Z" stroke-width=".5"/>
    </g>
    <defs>
        <clipPath id="ea">
            <path transform="matrix(1 0 0 -1 0 12)" d="M0 0h12v12H0z"/>
        </clipPath>
    </defs>
</symbol><symbol viewBox="0 0 26 14" id="menu" xmlns="http://www.w3.org/2000/svg">
    <rect width="26" height="2" rx="1"/>
    <rect y="6" width="20" height="2" rx="1"/>
    <rect y="12" width="12" height="2" rx="1"/>
</symbol><symbol viewBox="0 0 23 27" id="notification" xmlns="http://www.w3.org/2000/svg">
    <path d="M11.854 26.417a2.59 2.59 0 0 0 2.584-2.584H9.27a2.59 2.59 0 0 0 2.583 2.584Zm8.396-7.75v-7.104c0-3.966-2.751-7.285-6.458-8.164v-.878A1.935 1.935 0 0 0 11.854.583a1.935 1.935 0 0 0-1.937 1.938v.878c-3.707.879-6.459 4.198-6.459 8.164v7.104L.875 21.25v1.292h21.958V21.25l-2.583-2.583Z"/>
</symbol><symbol xml:space="preserve" viewBox="0 0 512 512" id="out" xmlns="http://www.w3.org/2000/svg">
    <path d="M510.371 226.513c-1.088-2.603-2.645-4.971-4.629-6.955l-63.979-63.979c-8.341-8.32-21.824-8.32-30.165 0-8.341 8.341-8.341 21.845 0 30.165l27.584 27.584H320.013c-11.797 0-21.333 9.557-21.333 21.333s9.536 21.333 21.333 21.333h119.168l-27.584 27.584c-8.341 8.341-8.341 21.845 0 30.165 4.16 4.181 9.621 6.251 15.083 6.251s10.923-2.069 15.083-6.251l63.979-63.979c1.984-1.963 3.541-4.331 4.629-6.955a21.356 21.356 0 0 0 0-16.296z" data-original="#000000"/>
    <path d="M362.68 298.667c-11.797 0-21.333 9.557-21.333 21.333v106.667h-85.333V85.333c0-9.408-6.187-17.728-15.211-20.437l-74.091-22.229h174.635v106.667c0 11.776 9.536 21.333 21.333 21.333s21.333-9.557 21.333-21.333v-128C384.013 9.557 374.477 0 362.68 0H21.347c-.768 0-1.451.32-2.197.405-1.003.107-1.92.277-2.88.512a21.476 21.476 0 0 0-6.165 2.645c-.469.299-1.045.32-1.493.661-.172.129-.236.364-.407.492-2.325 1.834-4.266 4.074-5.674 6.741-.299.576-.363 1.195-.597 1.792-.683 1.621-1.429 3.2-1.685 4.992-.107.64.085 1.237.064 1.856-.021.427-.299.811-.299 1.237V448c0 10.176 7.189 18.923 17.152 20.907l213.333 42.667c1.387.299 2.795.427 4.181.427a21.31 21.31 0 0 0 13.525-4.843 21.354 21.354 0 0 0 7.808-16.491v-21.333H362.68c11.797 0 21.333-9.557 21.333-21.333V320c0-11.776-9.536-21.333-21.333-21.333z" data-original="#000000"/>
</symbol><symbol viewBox="0 0 12 12" id="right" xmlns="http://www.w3.org/2000/svg">
    <g clip-path="url(#ia)">
        <path d="m7.702 6.031-5.11 4.906a.753.753 0 0 0 0 1.092c.308.295.801.295 1.108 0l5.673-5.452.02-.016.007-.007.008-.006a.756.756 0 0 0 .233-.5v-.096a.756.756 0 0 0-.233-.5L9.4 5.446l-.028-.025L3.7-.03a.804.804 0 0 0-1.107 0 .753.753 0 0 0 0 1.091v.001l5.109 4.968Z" stroke-width=".5"/>
    </g>
    <defs>
        <clipPath id="ia">
            <path transform="matrix(-1 0 0 1 12 0)" d="M0 0h12v12H0z"/>
        </clipPath>
    </defs>
</symbol><symbol viewBox="0 0 21 21" id="statistic" xmlns="http://www.w3.org/2000/svg">
    <g clip-path="url(#ja)">
        <path d="M1.665 8.784h1.93v8.574h-1.93V8.784ZM7.55.21h1.93v17.15H7.55V.21ZM13.432 7.07h1.93v10.29h-1.93V7.07ZM18.86.21h1.93v17.15h-1.93V.21ZM.21 18.646h20.58v2.144H.21v-2.144Z"/>
    </g>
    <defs>
        <clipPath id="ja">
            <path d="M0 0h21v21H0z"/>
        </clipPath>
    </defs>
</symbol><symbol viewBox="0 0 27 26" id="user" xmlns="http://www.w3.org/2000/svg">
    <path d="M13.502 16.798c3.851 0 6.983-3.768 6.983-8.399C20.485 3.77 17.354 0 13.502 0c-1.907 0-3.685.902-5.008 2.536C7.22 4.111 6.518 6.193 6.518 8.4c0 4.631 3.132 8.4 6.984 8.4Zm0-14.956c2.824 0 5.12 2.942 5.12 6.557 0 3.618-2.3 6.557-5.12 6.557-2.825 0-5.12-2.939-5.123-6.557 0-3.615 2.295-6.557 5.123-6.557Zm5.864 14.034a.925.925 0 0 0-.93.92c0 .507.416.919.93.919 3.183 0 5.773 2.56 5.773 5.707a.741.741 0 0 1-.744.733H2.605a.74.74 0 0 1-.744-.733c0-3.147 2.59-5.707 5.773-5.707.514 0 .93-.412.93-.92a.925.925 0 0 0-.93-.92c-4.21 0-7.634 3.388-7.634 7.55C0 24.846 1.17 26 2.605 26h21.787C25.83 26 27 24.846 27 23.425c0-4.162-3.426-7.55-7.634-7.55Z"/>
</symbol><symbol viewBox="0 0 20 20" id="zoom" xmlns="http://www.w3.org/2000/svg">
    <g clip-path="url(#la)">
        <path d="m19.59 18.574-4.748-4.746a8.253 8.253 0 0 0 1.946-5.334 8.295 8.295 0 1 0-8.294 8.294c2.032 0 3.89-.732 5.334-1.946l4.746 4.746a.717.717 0 0 0 1.016-1.014ZM8.494 15.282a6.786 6.786 0 1 1 0-13.571 6.786 6.786 0 0 1 0 13.571Z"/>
    </g>
    <defs>
        <clipPath id="la">
            <path d="M0 0h20v20H0z"/>
        </clipPath>
    </defs>
</symbol></svg>