<svg width="53" height="43" viewBox="0 0 53 43" fill="none" xmlns="http://www.w3.org/2000/svg">
<path d="M43.725 28.125C39.7003 28.125 36.4375 31.3879 36.4375 35.4125C36.4375 39.4372 39.7003 42.7 43.725 42.7C47.7497 42.7 51.0125 39.4372 51.0125 35.4125C51.0125 31.3879 47.7497 28.125 43.725 28.125ZM43.725 37.4001C42.6294 37.4001 41.7375 36.5082 41.7375 35.4125C41.7375 34.3169 42.6294 33.425 43.725 33.425C44.8206 33.425 45.7125 34.3169 45.7125 35.4125C45.7125 36.5082 44.8206 37.4001 43.725 37.4001ZM50.35 13.5501H45.05V10.221C45.05 9.05168 45.4392 7.92211 46.139 7.00455C46.505 6.52424 46.433 5.84021 46.0297 5.39053L44.2384 3.38896C43.6869 2.772 42.7213 2.81589 42.193 3.45355C40.6262 5.34333 39.75 7.73744 39.75 10.221V13.5501H31.2758L26.6308 2.71321C26.3257 1.99674 25.8165 1.3859 25.1667 0.956788C24.5168 0.527682 23.7551 0.299283 22.9763 0.300051H11.925C9.73295 0.300051 7.95 2.083 7.95 4.27505V16.4087C7.23533 15.8514 6.21425 15.8738 5.55755 16.5305L2.98125 19.1068C2.26989 19.8181 2.26989 20.9717 2.98125 21.6831L3.40028 22.1021C2.98705 22.8689 2.65828 23.6606 2.41398 24.4805H1.82187C0.815703 24.4805 0 25.2962 0 26.3023V29.9461C0 30.9523 0.815703 31.768 1.82187 31.768H2.41316C2.65828 32.5886 2.98622 33.3795 3.39945 34.1472L2.98042 34.5662C2.26906 35.2776 2.26906 36.4311 2.98042 37.1425L5.55672 39.7188C6.26808 40.4302 7.42166 40.4302 8.13301 39.7188L8.55205 39.2998C9.31889 39.713 10.1106 40.0418 10.9304 40.2861V40.8782C10.9304 41.8843 11.7461 42.7 12.7523 42.7H16.396C17.4022 42.7 18.2179 41.8843 18.2179 40.8782V40.2869C19.0378 40.0426 19.8295 39.7138 20.5963 39.3006L21.0153 39.7196C21.7267 40.431 22.8803 40.431 23.5916 39.7196L26.1679 37.1433C26.8793 36.432 26.8793 35.2784 26.1679 34.567L25.7489 34.148C26.1621 33.3812 26.4909 32.5895 26.7352 31.7696H27.3281C28.3343 31.7696 29.15 30.9539 29.15 29.9478V29.4509H35.8197C37.6341 27.0501 40.4837 25.4759 43.725 25.4759C45.2686 25.4759 46.712 25.8576 48.0147 26.4862L52.2232 22.2777C52.7201 21.7808 52.9992 21.1067 52.9992 20.4036V16.2001C53 14.7368 51.8133 13.5501 50.35 13.5501ZM14.575 34.75C10.9163 34.75 7.95 31.7837 7.95 28.125C7.95 24.4664 10.9163 21.5 14.575 21.5C18.2337 21.5 21.2 24.4664 21.2 28.125C21.2 31.7837 18.2337 34.75 14.575 34.75ZM16.3969 13.5501H13.25V5.60005H22.1018L25.5096 13.5501H16.3969Z" fill="#323E7D"/>
</svg>
