<svg width="56" height="50" viewBox="0 0 56 50" fill="none" xmlns="http://www.w3.org/2000/svg">
<path d="M54.25 44H49V34.725C49 23.35 45.1501 12.325 37.975 3.4C36.75 2 35.175 0.95 33.25 0.775C31.325 0.6 29.4 1.125 28 2.35C26.25 3.575 25.375 5.325 25.2 7.25C25.025 9.175 25.725 11.1 26.95 12.675L28.875 14.95C31.675 18.1 31.675 22.825 29.225 26.15L26.95 23.875C25.2 22.125 22.75 21.25 20.125 21.25H14.175C9.45005 21.25 5.42505 24.575 4.55005 28.95C5.95005 28.425 7.35005 28.25 8.75005 28.25C15.575 28.25 21 33.675 21 40.5C21 43.125 20.125 45.575 18.725 47.5H26.25C30.625 47.5 34.3 45.05 35.875 41.025C37.45 37.35 36.4 33.15 33.425 30.35L31.5 28.6C35.35 24.05 35.35 17.225 31.325 12.675L29.4 10.4C28.7 9.7 28.35 8.65 28.525 7.6C28.7 6.55 29.05 5.675 29.925 4.975C30.625 4.275 31.675 4.1 32.725 4.1C33.775 4.275 34.65 4.625 35.175 5.5C41.8251 13.725 45.325 24.05 45.325 34.55V44H43.575C42.525 44 41.825 44.7 41.825 45.75C41.825 46.8 42.525 47.5 43.575 47.5H54.075C55.125 47.5 55.825 46.8 55.825 45.75C55.825 44.7 55.3 44 54.25 44Z" fill="#323E7D"/>
<path d="M8.75 49.25C13.5825 49.25 17.5 45.3325 17.5 40.5C17.5 35.6675 13.5825 31.75 8.75 31.75C3.91751 31.75 0 35.6675 0 40.5C0 45.3325 3.91751 49.25 8.75 49.25Z" fill="#323E7D"/>
</svg>
