<svg width="12" height="12" viewBox="0 0 12 12" fill="none" xmlns="http://www.w3.org/2000/svg">
<g clip-path="url(#clip0_61_325)">
<path d="M4.29847 5.9689L9.40716 1.06306L9.40722 1.063C9.71973 0.762687 9.71973 0.271507 9.40722 -0.0288029C9.10032 -0.323729 8.60669 -0.323729 8.29979 -0.0288029L8.29978 -0.0287943L2.62745 5.42268L2.60713 5.43935L2.59952 5.44558L2.59244 5.45239C2.44949 5.58977 2.37068 5.7689 2.35945 5.95251L2.35899 5.96013V5.96777V6.03223V6.03987L2.35945 6.04749C2.37068 6.2311 2.44949 6.41024 2.59244 6.54761L2.5923 6.54775L2.59973 6.55434L2.6279 6.57934L8.29979 12.0288C8.60669 12.3237 9.10032 12.3237 9.40722 12.0288L4.29847 5.9689ZM4.29847 5.9689L9.40722 10.937C9.40742 10.9372 9.40761 10.9374 9.4078 10.9376C9.71973 11.2379 9.71953 11.7287 9.40722 12.0288L4.29847 5.9689Z" fill="black" stroke="black" stroke-width="0.5"/>
</g>
<defs>
<clipPath id="clip0_61_325">
<rect width="12" height="12" fill="white" transform="matrix(1 0 0 -1 0 12)"/>
</clipPath>
</defs>
</svg>
