<svg width="12" height="12" viewBox="0 0 12 12" fill="none" xmlns="http://www.w3.org/2000/svg">
<g clip-path="url(#clip0_61_325)">
<path d="M7.70153 6.0311L2.59284 10.9369L2.59278 10.937C2.28027 11.2373 2.28027 11.7285 2.59278 12.0288C2.89968 12.3237 3.39331 12.3237 3.70021 12.0288L3.70022 12.0288L9.37256 6.57731L9.39287 6.56065L9.40048 6.55442L9.40756 6.5476C9.55051 6.41023 9.62932 6.2311 9.64055 6.04749L9.64101 6.03987L9.64101 6.03223L9.64101 5.96777L9.64101 5.96013L9.64055 5.9525C9.62932 5.7689 9.55051 5.58976 9.40756 5.45239L9.4077 5.45225L9.40027 5.44566L9.37209 5.42065L3.70021 -0.0288058C3.70021 -0.0288115 3.7002 -0.0288171 3.7002 -0.0288228C3.39329 -0.323731 2.89968 -0.323726 2.59278 -0.028806C2.28047 0.271318 2.28027 0.762074 2.5922 1.06243C2.59239 1.06262 2.59258 1.06281 2.59278 1.06299L7.70153 6.0311Z" fill="black" stroke="black" stroke-width="0.5"/>
</g>
<defs>
<clipPath id="clip0_61_325">
<rect width="12" height="12" fill="white" transform="matrix(-1 8.74228e-08 8.74228e-08 1 12 0)"/>
</clipPath>
</defs>
</svg>
