<svg width="27" height="26" viewBox="0 0 27 26" fill="none" xmlns="http://www.w3.org/2000/svg">
<path d="M13.5015 16.7984C17.3535 16.7984 20.4849 13.0301 20.4849 8.39921C20.4849 3.76838 17.3535 0 13.5015 0C11.5953 0 9.8168 0.901525 8.49431 2.53629C7.22047 4.11096 6.51818 6.19348 6.51818 8.39921C6.51818 13.0301 9.64959 16.7984 13.5015 16.7984ZM13.5015 1.84212C16.3259 1.84212 18.6212 4.7841 18.6212 8.39921C18.6212 12.0173 16.3228 14.9563 13.5015 14.9563C10.6772 14.9563 8.38183 12.0173 8.37879 8.39921C8.37879 4.7841 10.6741 1.84212 13.5015 1.84212ZM19.3661 15.8759C18.8523 15.8759 18.4358 16.2876 18.4358 16.7954C18.4358 17.3033 18.8523 17.715 19.3661 17.715C22.5492 17.715 25.1394 20.2753 25.1394 23.4216C25.1394 23.8243 24.805 24.1549 24.3946 24.1549H2.60545C2.19502 24.1549 1.8606 23.8273 1.8606 23.4216C1.8606 20.2753 4.45085 17.715 7.63394 17.715C8.14773 17.715 8.56424 17.3033 8.56424 16.7954C8.56424 16.2876 8.14773 15.8759 7.63394 15.8759C3.42326 15.8759 0 19.2626 0 23.4246C0 24.846 1.17048 26 2.60545 26H24.3915C25.8295 26 27 24.846 27 23.4246C27 19.2626 23.5737 15.8759 19.3661 15.8759Z" fill="#606060"/>
</svg>
