<svg width="8" height="8" viewBox="0 0 8 8" fill="none" xmlns="http://www.w3.org/2000/svg">
<g clip-path="url(#clip0_61_59)">
<path d="M8.07929 1.67086C8.3069 1.90771 8.3069 2.28776 8.07931 2.52461C8.0793 2.52462 8.0793 2.52463 8.07929 2.52463L4.44746 6.3047L4.43189 6.32224L4.4253 6.32967L4.42516 6.32953C4.31885 6.44015 4.17969 6.50155 4.03675 6.51029L4.02913 6.51076L4.02149 6.51076L3.97851 6.51076L3.97087 6.51076L3.96325 6.51029C3.82031 6.50155 3.68115 6.44015 3.57484 6.32953L3.56803 6.32244L3.5618 6.31484L3.55277 6.30383L-0.0792799 2.52464L-0.0792885 2.52463C-0.306901 2.28777 -0.306901 1.90772 -0.0792885 1.67086C0.153709 1.4284 0.535753 1.4284 0.768751 1.67086L0.768812 1.67092L3.97964 5.01451L7.23125 1.67086C7.23144 1.67066 7.23164 1.67046 7.23183 1.67026C7.46488 1.4284 7.84648 1.4286 8.07929 1.67086ZM8.07929 1.67086L7.89903 1.84408L8.07929 1.67086Z" fill="black" stroke="black" stroke-width="0.5"/>
</g>
<defs>
<clipPath id="clip0_61_59">
<rect width="8" height="8" fill="white" transform="matrix(1.19249e-08 -1 -1 -1.19249e-08 8 8)"/>
</clipPath>
</defs>
</svg>
