<svg width="30" height="30" viewBox="0 0 30 30" fill="none" xmlns="http://www.w3.org/2000/svg">
<path d="M17.3652 15.0577C17.3652 13.7308 18.1729 12.577 19.2691 12.0001C19.096 9.75006 17.2498 8.01929 14.9422 8.01929C12.5768 8.01929 10.6152 9.98083 10.6152 12.3462C10.6152 14.7116 12.5768 16.6731 14.9422 16.6731C15.8075 16.6731 16.6729 16.3847 17.3075 15.9231V15.0577H17.3652Z" fill="url(#paint0_linear_77_892)"/>
<path d="M17.3658 21V19.9038C17.3658 19.5 17.4235 19.1538 17.5389 18.8077H7.38507C7.38507 17.1346 6.05814 15.75 4.32737 15.75V9.28846C6.00045 9.28846 7.38507 7.96154 7.38507 6.23077H22.5581C22.5581 7.90385 23.8851 9.28846 25.6158 9.28846V11.5962H27.8081C28.212 11.5962 28.5581 11.6538 28.9043 11.7692V5.59615C28.9043 4.15385 27.7505 3 26.3081 3H3.75045C2.30814 3 1.1543 4.15385 1.1543 5.59615V19.5577C1.1543 21 2.30814 22.1538 3.75045 22.1538H17.5966C17.4812 21.8077 17.3658 21.4038 17.3658 21Z" fill="url(#paint1_linear_77_892)"/>
<path d="M28.8459 25.9037C28.8459 26.4807 28.269 26.9999 27.6921 26.9999H20.769C20.1921 26.9999 19.6729 26.4807 19.6729 25.9037V24.8076C19.6729 24.2307 20.1921 23.7114 20.769 23.7114H27.7498C28.3267 23.7114 28.8459 24.2307 28.8459 24.8076V25.9037Z" fill="url(#paint2_linear_77_892)"/>
<path d="M28.8459 21.0578C28.8459 21.6347 28.269 22.1539 27.6921 22.1539H20.769C20.1921 22.1539 19.6729 21.6347 19.6729 21.0578V19.9616C19.6729 19.3847 20.1921 18.8655 20.769 18.8655H27.7498C28.3267 18.8655 28.8459 19.3847 28.8459 19.9616V21.0578Z" fill="url(#paint3_linear_77_892)"/>
<path d="M28.8459 16.1537C28.8459 16.7307 28.269 17.2499 27.6921 17.2499H20.769C20.1921 17.2499 19.6729 16.7307 19.6729 16.1537V15.0576C19.6729 14.4807 20.1921 13.9614 20.769 13.9614H27.7498C28.3267 13.9614 28.8459 14.4807 28.8459 15.0576V16.1537Z" fill="url(#paint4_linear_77_892)"/>
<defs>
<linearGradient id="paint0_linear_77_892" x1="18.5166" y1="7.63665" x2="8.86238" y2="14.3361" gradientUnits="userSpaceOnUse">
<stop stop-color="#FFA52C"/>
<stop offset="1" stop-color="#E8502B"/>
</linearGradient>
<linearGradient id="paint1_linear_77_892" x1="26.4912" y1="2.15309" x2="3.68142" y2="25.0855" gradientUnits="userSpaceOnUse">
<stop stop-color="#FFA52C"/>
<stop offset="1" stop-color="#E8502B"/>
</linearGradient>
<linearGradient id="paint2_linear_77_892" x1="28.0483" y1="23.566" x2="24.8544" y2="29.7485" gradientUnits="userSpaceOnUse">
<stop stop-color="#FFA52C"/>
<stop offset="1" stop-color="#E8502B"/>
</linearGradient>
<linearGradient id="paint3_linear_77_892" x1="28.0483" y1="18.7201" x2="24.8544" y2="24.9025" gradientUnits="userSpaceOnUse">
<stop stop-color="#FFA52C"/>
<stop offset="1" stop-color="#E8502B"/>
</linearGradient>
<linearGradient id="paint4_linear_77_892" x1="28.0483" y1="13.816" x2="24.8544" y2="19.9985" gradientUnits="userSpaceOnUse">
<stop stop-color="#FFA52C"/>
<stop offset="1" stop-color="#E8502B"/>
</linearGradient>
</defs>
</svg>
