<svg width="50" height="46" viewBox="0 0 50 46" fill="none" xmlns="http://www.w3.org/2000/svg">
<path d="M23.1315 10.0332V17.6731C23.1315 18.6725 23.9597 19.4729 24.9585 19.4387C25.9661 19.4039 26.765 18.5769 26.765 17.5686V10.0332V2.4978C26.765 1.48955 25.9661 0.662582 24.9585 0.627722C23.9597 0.593555 23.1315 1.39395 23.1315 2.39329V10.0332Z" fill="#323E7D"/>
<path d="M42.6485 2.9329C41.901 3.1819 40.8835 3.6389 40.3645 3.9294C39.4508 4.47131 37.9016 5.57938 37.2165 6.15061C36.9613 6.36346 37.0425 6.50242 37.3612 6.40809C37.7438 6.29483 38.3142 6.09793 38.932 5.8604C40.9875 5.0924 43.7075 4.3239 44.351 4.3239C46.178 4.3239 40.863 7.3759 35.0285 9.6804C32.7445 10.5734 32.433 10.7809 31.665 11.6944C31.5511 11.8343 31.4436 11.969 31.3471 12.093C31.0122 12.5236 31.1688 12.723 31.6782 12.5277C31.9083 12.4395 32.1741 12.3324 32.454 12.2134C34.3435 11.4449 38.143 10.2204 39.1605 10.0749C39.5965 10.0124 39.991 10.0334 40.0535 10.1374C40.3445 10.5944 36.1915 12.9194 31.9355 14.7054C31.4768 14.8923 31.0458 15.0757 30.6925 15.23C30.0961 15.4904 30.1255 15.6782 30.7761 15.6938C32.0712 15.725 34.5202 15.7439 37.3335 15.7439H42.8173C44.1217 15.7439 45.3092 14.992 45.867 13.8129C48.587 8.0199 48.7115 4.0959 46.1785 2.8294C45.223 2.3309 44.2885 2.3724 42.6485 2.9329Z" fill="#323E7D"/>
<path d="M6.18903 8.33092C6.14753 8.47642 6.12653 10.1789 6.14753 12.1099C6.18206 14.0754 7.77371 15.6568 9.73936 15.6787L11.774 15.7014L13.4766 15.7142C15.5932 15.73 17.3175 14.0186 17.3175 11.9019C17.3175 9.78059 15.5979 8.06092 13.4765 8.06092H11.8155C7.51753 8.06142 6.27203 8.12342 6.18903 8.33092ZM10.404 10.5944C11.2443 11.4234 12.5947 11.4234 13.435 10.5944C14.764 9.28642 15.034 9.09942 15.719 9.09942C16.4875 9.09942 16.4875 9.09942 16.4875 9.97142C16.4875 10.8019 16.3835 10.9679 14.5775 12.7744C11.9615 15.4114 11.899 15.3904 9.17903 12.6914C7.33103 10.8434 7.14453 10.5944 7.14453 9.88842C7.14453 9.09942 7.14453 9.09942 8.01653 9.09942C8.82603 9.09942 9.01253 9.20292 10.404 10.5944Z" fill="#323E7D"/>
<path d="M0.5 20.3943V22.116C0.5 22.7231 0.973473 23.2248 1.5795 23.2598C2.2096 23.296 2.7293 23.7665 2.82787 24.3898L4.3825 34.2223C5.12891 39.0147 5.7691 43.1452 6.00727 44.656C6.07167 45.0645 6.3106 45.2995 6.72389 45.3141C8.85786 45.39 16.2678 45.4338 25 45.4338C35.402 45.4338 43.894 45.3718 43.894 45.2678C43.894 45.1848 44.683 40.2223 45.6175 34.2218L47.1717 24.3899C47.2702 23.7665 47.7899 23.296 48.42 23.2598C49.0263 23.2248 49.5 22.7228 49.5 22.1155V20.3943C49.5 18.8579 48.2545 17.6123 46.718 17.6123H38.807H29.6715C28.8116 17.6123 28.1145 18.3094 28.1145 19.1693C28.1145 20.0292 27.4174 20.7263 26.5575 20.7263H24.8965H23.2355C22.3756 20.7263 21.6785 20.0292 21.6785 19.1693C21.6785 18.3094 20.9814 17.6123 20.1215 17.6123H11.089H3.282C1.74555 17.6123 0.5 18.8579 0.5 20.3943ZM11.878 25.1283C11.9122 26.1271 11.1118 26.9553 10.1124 26.9553H9.013H7.9745C6.94256 26.9553 6.106 26.1188 6.106 25.0868C6.106 24.05 6.95849 23.2159 7.99505 23.2385L8.971 23.2598L10.0083 23.2824C11.0225 23.3046 11.8429 24.1146 11.878 25.1283ZM19.394 25.0863C19.394 26.1183 18.5574 26.9548 17.5255 26.9548C16.4936 26.9548 15.657 26.1183 15.657 25.0863C15.657 24.0544 16.4936 23.2178 17.5255 23.2178C18.5574 23.2178 19.394 24.0544 19.394 25.0863ZM26.8685 25.0863C26.8685 26.1183 26.0319 26.9548 25 26.9548C23.9681 26.9548 23.1315 26.1183 23.1315 25.0863C23.1315 24.0544 23.9681 23.2178 25 23.2178C26.0319 23.2178 26.8685 24.0544 26.8685 25.0863ZM34.343 25.0863C34.343 26.1183 33.5064 26.9548 32.4745 26.9548C31.4426 26.9548 30.606 26.1183 30.606 25.0863C30.606 24.0544 31.4426 23.2178 32.4745 23.2178C33.5064 23.2178 34.343 24.0544 34.343 25.0863ZM43.8525 25.1283C43.8864 26.1272 43.0859 26.9553 42.0864 26.9553H41.091H40.1565C39.1246 26.9553 38.288 26.1188 38.288 25.0868C38.288 24.0503 39.1407 23.2166 40.177 23.2401L41.0495 23.2598L41.9829 23.281C42.9972 23.3039 43.8174 24.1143 43.8525 25.1283ZM11.878 32.7063C11.8428 33.7345 11.0167 34.5595 9.98841 34.5931L9.9055 34.5958L9.86301 34.5972C8.83005 34.6306 7.9745 33.8023 7.9745 32.7688C7.9745 31.7369 8.81106 30.9003 9.843 30.9003H9.947H10.1334C11.1212 30.9003 11.9122 31.7192 11.878 32.7063ZM19.394 32.7688C19.394 33.8008 18.5574 34.6373 17.5255 34.6373C16.4936 34.6373 15.657 33.8008 15.657 32.7688C15.657 31.7369 16.4936 30.9003 17.5255 30.9003C18.5574 30.9003 19.394 31.7369 19.394 32.7688ZM26.8685 32.7688C26.8685 33.8008 26.0319 34.6373 25 34.6373C23.9681 34.6373 23.1315 33.8008 23.1315 32.7688C23.1315 31.7369 23.9681 30.9003 25 30.9003C26.0319 30.9003 26.8685 31.7369 26.8685 32.7688ZM34.343 32.7688C34.343 33.8008 33.5064 34.6373 32.4745 34.6373C31.4426 34.6373 30.606 33.8008 30.606 32.7688C30.606 31.7369 31.4426 30.9003 32.4745 30.9003C33.5064 30.9003 34.343 31.7369 34.343 32.7688ZM42.0255 32.7688C42.0255 33.8008 41.1889 34.6373 40.157 34.6373C39.1251 34.6373 38.2885 33.8008 38.2885 32.7688C38.2885 31.7369 39.1251 30.9003 40.157 30.9003C41.1889 30.9003 42.0255 31.7369 42.0255 32.7688ZM11.9195 40.2433C11.9195 41.2753 11.0829 42.1118 10.051 42.1118H9.947H9.843C8.81106 42.1118 7.9745 41.2753 7.9745 40.2433C7.9745 39.2114 8.81106 38.3748 9.843 38.3748H9.947H10.051C11.0829 38.3748 11.9195 39.2114 11.9195 40.2433ZM19.394 40.2433C19.394 41.2753 18.5574 42.1118 17.5255 42.1118C16.4936 42.1118 15.657 41.2753 15.657 40.2433C15.657 39.2114 16.4936 38.3748 17.5255 38.3748C18.5574 38.3748 19.394 39.2114 19.394 40.2433ZM26.8685 40.2433C26.8685 41.2753 26.0319 42.1118 25 42.1118C23.9681 42.1118 23.1315 41.2753 23.1315 40.2433C23.1315 39.2114 23.9681 38.3748 25 38.3748C26.0319 38.3748 26.8685 39.2114 26.8685 40.2433ZM34.343 40.2433C34.343 41.2753 33.5064 42.1118 32.4745 42.1118C31.4426 42.1118 30.606 41.2753 30.606 40.2433C30.606 39.2114 31.4426 38.3748 32.4745 38.3748C33.5064 38.3748 34.343 39.2114 34.343 40.2433ZM42.0255 40.2433C42.0255 41.2753 41.1889 42.1118 40.157 42.1118C39.1251 42.1118 38.2885 41.2753 38.2885 40.2433C38.2885 39.2114 39.1251 38.3748 40.157 38.3748C41.1889 38.3748 42.0255 39.2114 42.0255 40.2433Z" fill="#323E7D"/>
</svg>
