<svg width="69" height="30" viewBox="0 0 69 30" fill="none" xmlns="http://www.w3.org/2000/svg">
<path d="M68.3099 20.3369V23.9594C68.3099 25.2911 67.2266 26.3744 65.8949 26.3744H63.3695C63.4385 25.9811 63.4799 25.5809 63.4799 25.1669C63.4799 21.1649 60.2369 17.9219 56.2349 17.9219C52.2329 17.9219 48.9899 21.1649 48.9899 25.1669C48.9899 25.5809 49.0313 25.9811 49.1003 26.3744H17.4845C17.5535 25.9811 17.5949 25.5809 17.5949 25.1669C17.5949 21.1649 14.3519 17.9219 10.3499 17.9219C6.34794 17.9219 3.10494 21.1649 3.10494 25.1669C3.10494 25.5809 3.14634 25.9811 3.21534 26.3744H3.10494C1.77324 26.3744 0.689941 25.2911 0.689941 23.9594V20.3369C0.689941 20.1161 0.731341 19.9091 0.786541 19.7021C1.29714 16.4039 2.23554 13.2506 2.74614 12.3812C2.96004 12.0155 3.10494 11.843 3.10494 11.843C3.18084 11.4566 7.45194 4.25994 7.96944 3.63894C9.59784 0.65124 16.3253 1.01004 16.3253 1.01004C16.3253 1.01004 35.3072 1.03764 38.5778 1.03764C41.2481 1.24464 41.4689 1.80354 42.5384 2.63154C42.98 2.96274 52.4882 11.8706 52.9919 11.8775C60.9338 11.9465 62.8037 13.0505 62.8037 13.0505C68.6067 16.19 68.3099 20.3369 68.3099 20.3369ZM22.4249 4.63944C22.4249 4.63944 17.9744 4.63944 15.1799 4.63944C12.3854 4.63944 11.5574 7.05444 11.5574 7.05444L10.2119 10.0766L22.4249 10.6769V4.63944ZM40.5374 6.75084C40.5374 6.75084 38.84 4.63944 37.6325 4.63944C36.425 4.63944 24.8399 4.68084 24.8399 4.68084V10.6838L38.081 11.5532V9.85584C38.081 9.85584 38.5019 8.78634 39.4955 8.99334C40.3166 9.15894 41.2136 10.0973 41.9864 11.8154L45.5468 12.05L40.5374 6.75084ZM10.3499 20.3369C13.0202 20.3369 15.1799 22.4966 15.1799 25.1669C15.1799 27.8372 13.0202 29.9969 10.3499 29.9969C7.67964 29.9969 5.51994 27.8372 5.51994 25.1669C5.51994 22.4966 7.67964 20.3369 10.3499 20.3369ZM56.2349 20.3369C58.9052 20.3369 61.0649 22.4966 61.0649 25.1669C61.0649 27.8372 58.9052 29.9969 56.2349 29.9969C53.5646 29.9969 51.4049 27.8372 51.4049 25.1669C51.4049 22.4966 53.5646 20.3369 56.2349 20.3369Z" fill="#323E7D"/>
</svg>
