<svg width="36" height="54" viewBox="0 0 36 54" fill="none" xmlns="http://www.w3.org/2000/svg">
<path d="M10.3083 0.775398C10.1263 0.978977 9.91193 1.98608 9.00149 6.96704C8.03759 12.259 7.88747 12.934 7.67309 13.1268C7.53377 13.2445 7.01969 13.6841 6.52667 14.1123C3.74135 16.4802 1.78115 19.8547 0.945768 23.7114C0.742188 24.6434 0.710327 25.1359 0.710327 27C0.710327 28.864 0.742188 29.3565 0.945768 30.2886C1.77089 34.102 3.73109 37.4981 6.45215 39.812C6.92357 40.2192 7.44845 40.669 7.61963 40.8191C7.90907 41.0761 7.95173 41.2689 9.00149 47.0323C9.91193 52.0138 10.1263 53.0209 10.3083 53.224C10.4521 53.3747 10.6513 53.46 10.8596 53.46H18H25.1404C25.3488 53.46 25.548 53.3747 25.6918 53.224C25.8738 53.0204 26.0882 52.0133 26.9986 47.0323C28.0484 41.2689 28.091 41.0761 28.3805 40.8191C28.5516 40.669 29.0765 40.2192 29.5479 39.812C32.2582 37.4981 34.2297 34.0918 35.0543 30.2886C35.2579 29.3565 35.2903 28.864 35.2903 27C35.2903 25.1359 35.2579 24.6434 35.0543 23.7114C34.2297 19.8979 32.269 16.5018 29.5479 14.1879C29.0765 13.7808 28.5516 13.3309 28.3805 13.1808C28.091 12.9238 28.0484 12.7418 26.9986 6.96758C26.0882 1.99688 25.8738 0.979519 25.6918 0.77594C25.548 0.625557 25.3489 0.540497 25.1408 0.540497H18H10.8589C10.651 0.540497 10.4521 0.62534 10.3083 0.775398ZM19.5639 15.2269C26.7308 16.2232 31.412 23.3685 29.4092 30.2567C27.5769 36.5661 20.9997 40.2192 14.7325 38.4091C9.09761 36.7804 5.42345 31.1779 6.22697 25.4361C7.12661 18.955 13.1579 14.3375 19.5639 15.2269Z" fill="#323E7D"/>
<path d="M17.5929 18.8584C17.0788 19.0727 17.0356 19.4259 17.0356 23.3468C17.0356 25.6181 17.0783 27.0961 17.1426 27.2888C17.3137 27.7279 20.9776 31.3702 21.3956 31.5095C21.8346 31.6488 22.306 31.4236 22.488 30.9846C22.7024 30.4705 22.4346 30.0742 20.6347 28.2851L20.4394 28.091C19.4947 27.1525 18.9634 25.8758 18.9634 24.5441V23.1643C18.9634 19.3827 18.9208 19.0614 18.3743 18.8578C18.0427 18.7298 17.925 18.7298 17.5929 18.8584Z" fill="#323E7D"/>
</svg>
