<svg width="60" height="42" viewBox="0 0 60 42" fill="none" xmlns="http://www.w3.org/2000/svg">
<path d="M54.006 7.51811C54.4534 7.51811 54.816 7.33813 54.816 7.11611C54.816 6.89409 54.4534 6.71411 54.006 6.71411C53.5587 6.71411 53.196 6.89409 53.196 7.11611C53.196 7.33813 53.5587 7.51811 54.006 7.51811Z" fill="#323E7D"/>
<path d="M57.78 0.810059H36.78C35.892 0.810059 35.166 1.53606 35.166 2.42406V8.26806H38.4V3.78606H56.166V8.62806H40.926V13.0681H56.166V13.8781H40.926V17.9161H56.166V18.7201H40.926V37.0621H35.172V39.5701C35.172 40.4581 35.898 41.1841 36.786 41.1841H57.786C58.674 41.1841 59.4 40.4581 59.4 39.5701V2.42406C59.394 1.53606 58.668 0.810059 57.78 0.810059ZM47.28 30.5101C45.942 30.5101 44.856 29.4301 44.856 28.0861C44.856 26.7481 45.942 25.6621 47.28 25.6621C48.618 25.6621 49.704 26.7421 49.704 28.0861C49.704 29.4301 48.618 30.5101 47.28 30.5101Z" fill="#323E7D"/>
<path d="M36.0001 10.188H3.6001C1.94324 10.188 0.600098 11.5311 0.600098 13.188V32.148C0.600098 33.8048 1.94324 35.148 3.6001 35.148H36.0001C37.657 35.148 39.0001 33.8048 39.0001 32.148V13.188C39.0001 11.5311 37.657 10.188 36.0001 10.188Z" fill="#323E7D"/>
<path d="M14.0402 37.3501L10.2002 41.1901H29.4002L25.5602 37.3501H14.0402Z" fill="#323E7D"/>
</svg>
