<svg width="29" height="23" viewBox="0 0 29 23" fill="none" xmlns="http://www.w3.org/2000/svg">
<path d="M25.1562 0.5C26.8649 0.5 28.25 1.88512 28.25 3.59375V19.4126C28.25 21.1212 26.8649 22.5063 25.1562 22.5063H3.84375C2.13512 22.5063 0.75 21.1212 0.75 19.4126V3.59375C0.75 1.88512 2.13512 0.5 3.84375 0.5H25.1562ZM11.4062 12.1875H6.59375C6.07167 12.1875 5.6402 12.5755 5.57191 13.0788L5.5625 13.2187V13.8949L5.57332 14.0439C5.79691 15.575 7.07793 16.3138 8.99993 16.3138C10.8303 16.3138 12.0794 15.6444 12.3875 14.2587L12.4266 14.0455L12.4375 13.8963V13.2187C12.4375 12.6967 12.0495 12.2652 11.5462 12.1969L11.4062 12.1875ZM22.4062 12.8697H16.2219L16.082 12.8791C15.5786 12.9474 15.1907 13.3789 15.1907 13.9009C15.1907 14.423 15.5786 14.8545 16.082 14.9228L16.2219 14.9322H22.4062L22.5462 14.9228C23.0495 14.8545 23.4375 14.423 23.4375 13.9009C23.4375 13.3789 23.0495 12.9474 22.5462 12.8791L22.4062 12.8697ZM9 6.6905C7.86093 6.6905 6.93753 7.61389 6.93753 8.75296C6.93753 9.89203 7.86093 10.8154 9 10.8154C10.1391 10.8154 11.0625 9.89203 11.0625 8.75296C11.0625 7.61389 10.1391 6.6905 9 6.6905ZM22.4062 8.0625H16.2219L16.082 8.07191C15.5786 8.1402 15.1907 8.57167 15.1907 9.09375C15.1907 9.61583 15.5786 10.0473 16.082 10.1156L16.2219 10.125H22.4062L22.5462 10.1156C23.0495 10.0473 23.4375 9.61583 23.4375 9.09375C23.4375 8.57167 23.0495 8.1402 22.5462 8.07191L22.4062 8.0625Z" fill="url(#paint0_linear_75_444)"/>
<defs>
<linearGradient id="paint0_linear_75_444" x1="25.8587" y1="-0.473035" x2="-0.084533" y2="22.0242" gradientUnits="userSpaceOnUse">
<stop stop-color="#FFA52C"/>
<stop offset="1" stop-color="#E8502B"/>
</linearGradient>
</defs>
</svg>
