<svg width="5" height="7" viewBox="0 0 5 7" fill="none" xmlns="http://www.w3.org/2000/svg">
<path d="M0.440196 -0.0919115C0.21545 0.124063 0.215247 0.478377 0.439587 0.694602L3.34258 3.51767L0.44026 6.30475L0.440196 6.30481C0.215247 6.52098 0.215247 6.87574 0.440196 7.09191C0.659541 7.30269 1.01121 7.30269 1.23055 7.09191L1.23056 7.0919L4.53647 3.91471L4.54515 3.90759L4.55275 3.90136L4.55984 3.89454C4.66238 3.79601 4.71942 3.66684 4.72754 3.53406L4.72801 3.52644V3.5188V3.4812V3.47356L4.72754 3.46594C4.71942 3.33316 4.66238 3.20399 4.55984 3.10545L4.55998 3.10531L4.55255 3.09872L4.53766 3.08551L1.23055 -0.0919113C1.23055 -0.091917 1.23054 -0.0919226 1.23054 -0.0919283C1.01119 -0.302696 0.659536 -0.302691 0.440196 -0.0919115ZM0.440196 -0.0919115L0.61342 0.0883478L0.440196 -0.0919115Z" fill="#FF4D00" stroke="#FF4D00" stroke-width="0.5"/>
</svg>
