<svg width="21" height="25" viewBox="0 0 21 25" fill="none" xmlns="http://www.w3.org/2000/svg">
<path d="M15.333 0.416748L20.1663 5.25008H15.333V0.416748ZM12.9163 7.66675H20.1663V23.3751C20.1663 23.6955 20.039 24.0029 19.8124 24.2295C19.5858 24.4561 19.2785 24.5834 18.958 24.5834H2.04134C1.72087 24.5834 1.41353 24.4561 1.18692 24.2295C0.960314 24.0029 0.833008 23.6955 0.833008 23.3751V1.62508C0.833008 1.30461 0.960314 0.997267 1.18692 0.770661C1.41353 0.544054 1.72087 0.416748 2.04134 0.416748H12.9163V7.66675ZM4.45801 5.25008C4.45801 5.57055 4.58531 5.87789 4.81192 6.1045C5.03853 6.33111 5.34587 6.45841 5.66634 6.45841H9.29134C9.61181 6.45841 9.91916 6.33111 10.1458 6.1045C10.3724 5.87789 10.4997 5.57055 10.4997 5.25008C10.4997 4.92961 10.3724 4.62227 10.1458 4.39566C9.91916 4.16905 9.61181 4.04175 9.29134 4.04175H5.66634C5.34587 4.04175 5.03853 4.16905 4.81192 4.39566C4.58531 4.62227 4.45801 4.92961 4.45801 5.25008ZM16.5413 19.7501C16.5413 19.4296 16.414 19.1223 16.1874 18.8957C15.9608 18.6691 15.6535 18.5417 15.333 18.5417H5.66634C5.34587 18.5417 5.03853 18.6691 4.81192 18.8957C4.58531 19.1223 4.45801 19.4296 4.45801 19.7501C4.45801 20.0706 4.58531 20.3779 4.81192 20.6045C5.03853 20.8311 5.34587 20.9584 5.66634 20.9584H15.333C15.6535 20.9584 15.9608 20.8311 16.1874 20.6045C16.414 20.3779 16.5413 20.0706 16.5413 19.7501ZM5.66634 13.7084C5.34587 13.7084 5.03853 13.8357 4.81192 14.0623C4.58531 14.2889 4.45801 14.5963 4.45801 14.9167C4.45801 15.2372 4.58531 15.5446 4.81192 15.7712C5.03853 15.9978 5.34587 16.1251 5.66634 16.1251H15.333C15.6535 16.1251 15.9608 15.9978 16.1874 15.7712C16.414 15.5446 16.5413 15.2372 16.5413 14.9167C16.5413 14.5963 16.414 14.2889 16.1874 14.0623C15.9608 13.8357 15.6535 13.7084 15.333 13.7084H5.66634Z" fill="url(#paint0_linear_77_885)"/>
<defs>
<linearGradient id="paint0_linear_77_885" x1="18.4852" y1="-0.651809" x2="-5.94115" y2="12.9085" gradientUnits="userSpaceOnUse">
<stop stop-color="#FFA52C"/>
<stop offset="1" stop-color="#E8502B"/>
</linearGradient>
</defs>
</svg>
