<svg width="44" height="54" viewBox="0 0 44 54" fill="none" xmlns="http://www.w3.org/2000/svg">
<path d="M12.9999 30.6C12.9999 27.432 10.6482 24.8103 7.59994 24.3719V19.6334C8.64577 19.2608 9.39997 18.2717 9.39997 17.1V13.5C9.39997 12.3282 8.64577 11.3391 7.59994 10.9665V6.29996C7.59994 5.80226 7.19673 5.4 6.69997 5.4C5.7073 5.4 4.89994 4.59274 4.89994 3.59996C4.89994 2.60729 5.70719 1.79993 6.69997 1.79993C7.69264 1.79993 8.50001 2.60719 8.50001 3.59996C8.50001 4.86622 8.69439 8.99996 11.2 8.99996C11.6968 8.99996 12.1 8.59771 12.1 8.1C12.1 7.60229 11.6968 7.20004 11.2 7.20004C10.8373 7.20004 10.3 5.68804 10.3 3.60007C10.2999 1.61462 8.68532 0 6.69987 0C4.71452 0 3.0999 1.61462 3.0999 3.59996C3.0999 5.27396 4.2492 6.68609 5.7999 7.08571V10.9665C4.75407 11.3391 3.99987 12.3282 3.99987 13.5V17.1C3.99987 18.2717 4.75407 19.2609 5.7999 19.6334V24.3719C2.75164 24.8103 0.399902 27.4319 0.399902 30.6C0.399902 33.768 2.75164 36.3897 5.7999 36.828V40.5918C3.74885 41.0085 2.19994 42.8274 2.19994 44.9999C2.19994 47.1725 3.74885 48.9914 5.7999 49.4081V53.0999C5.7999 53.5976 6.20311 53.9999 6.69987 53.9999C7.19662 53.9999 7.59983 53.5976 7.59983 53.0999V49.4081C9.65088 48.9914 11.1998 47.1725 11.1998 44.9999C11.1998 42.8274 9.65088 41.0085 7.59983 40.5918V36.828C10.6482 36.3897 12.9999 33.768 12.9999 30.6ZM8.89056 26.6931C10.2612 27.4662 11.1999 28.9178 11.1999 30.6C11.1999 32.2821 10.2612 33.7338 8.89056 34.5068C9.23523 33.3836 9.39997 31.9895 9.39997 30.6C9.39997 29.2104 9.23523 27.8163 8.89056 26.6931ZM4.50928 34.507C3.13861 33.7339 2.19983 32.2822 2.19983 30.6001C2.19983 28.9179 3.1385 27.4663 4.50928 26.6932C4.16461 27.8164 3.99987 29.2105 3.99987 30.6001C3.99987 31.9896 4.16461 33.3837 4.50928 34.507Z" fill="#323E7D"/>
<path d="M38.1999 40.5918V36.828C41.2482 36.3897 43.5999 33.768 43.5999 30.6C43.5999 27.4319 41.2482 24.8103 38.1999 24.3719V19.6334C39.2458 19.2608 40 18.2717 40 17.1V13.5C40 12.3282 39.2458 11.3391 38.1999 10.9665V6.29996C38.1999 5.80226 37.7967 5.4 37.3 5.4C36.3072 5.4 35.4999 4.59274 35.4999 3.59996C35.4999 2.60729 36.3072 1.79993 37.3 1.79993C38.2926 1.79993 39.1 2.60719 39.1 3.59996C39.1 4.86622 39.2944 8.99996 41.8 8.99996C42.2968 8.99996 42.7 8.59771 42.7 8.1C42.7 7.60229 42.2968 7.20004 41.8 7.20004C41.4373 7.20004 40.9 5.68804 40.9 3.60007C40.8999 1.61462 39.2853 0 37.3 0C35.3145 0 33.7 1.61462 33.7 3.59996C33.7 5.27396 34.8493 6.68609 36.4 7.08571V10.9665C35.3542 11.3392 34.6 12.3282 34.6 13.5V17.1C34.6 18.2717 35.3542 19.2609 36.4 19.6334V24.3719C33.3517 24.8103 31 27.4319 31 30.6C31 33.768 33.3517 36.3897 36.4 36.828V40.5918C34.3489 41.0085 32.8 42.8274 32.8 44.9999C32.8 47.1725 34.3489 48.9914 36.4 49.4081V53.0999C36.4 53.5976 36.8032 53.9999 37.3 53.9999C37.7967 53.9999 38.1999 53.5976 38.1999 53.0999V49.4081C40.2511 48.9914 41.7999 47.1725 41.7999 44.9999C41.7999 42.8274 40.251 41.0085 38.1999 40.5918ZM39.4906 26.6931C40.8612 27.4662 41.8 28.9178 41.8 30.6C41.8 32.2821 40.8613 33.7338 39.4906 34.5068C39.8352 33.3836 40 31.9895 40 30.6C40 29.2104 39.8352 27.8163 39.4906 26.6931ZM35.1094 34.507C33.7387 33.7339 32.7999 32.2822 32.7999 30.6001C32.7999 28.9179 33.7386 27.4663 35.1094 26.6932C34.7647 27.8164 34.6 29.2105 34.6 30.6001C34.6 31.9896 34.7646 33.3837 35.1094 34.507Z" fill="#323E7D"/>
</svg>
