<svg width="34" height="22" viewBox="0 0 34 22" fill="none" xmlns="http://www.w3.org/2000/svg">
<path d="M28.5854 9.54816C28.5854 9.54816 29.2149 1.05496 21.4347 0.0864501C14.7649 -0.594521 12.7355 5.60319 12.7355 5.60319C12.7355 5.60319 10.7276 3.67199 8.00178 5.24959C5.56349 6.75531 5.99383 9.51222 5.99383 9.51222C5.99383 9.51222 0.577148 10.5643 0.577148 16.0869C0.698577 21.6017 6.45915 21.657 6.45915 21.657H17.4858L12.6287 16.7999H15.543V10.9713H19.4287V16.7999H22.343L17.4858 21.657H27.6538C27.6538 21.657 33.0161 21.6628 33.7689 16.4162C34.1274 10.6789 28.5854 9.54816 28.5854 9.54816Z" fill="url(#paint0_linear_75_442)"/>
<defs>
<linearGradient id="paint0_linear_75_442" x1="30.8979" y1="-0.9219" x2="5.19955" y2="26.4662" gradientUnits="userSpaceOnUse">
<stop stop-color="#FFA52C"/>
<stop offset="1" stop-color="#E8502B"/>
</linearGradient>
</defs>
</svg>
