<svg width="52" height="52" viewBox="0 0 52 52" fill="none" xmlns="http://www.w3.org/2000/svg">
<path d="M51.1093 5.73438L45.9531 0.578125C45.2656 -0.109375 44.2344 -0.109375 43.5469 0.578125L37.0156 7.10938C36.6719 7.45313 36.5 7.79688 36.5 8.3125V10.2031L29.1094 17.5938C24.8125 15.3594 19.6562 16.0469 16.2187 19.3125C15.3594 20.1719 14.6719 21.2031 14.1562 22.4063C13.6406 23.4375 12.7812 23.9531 11.5781 24.125C10.375 24.125 8.99998 24.2969 7.62498 24.8125C3.84373 26.3594 1.2656 29.4531 0.406227 33.4062C-0.453148 38.0469 1.09373 43.2031 4.87498 46.8125C7.96873 49.9062 11.9219 51.4531 15.7031 51.4531C16.5625 51.4531 17.4219 51.4531 18.2812 51.2813C22.2344 50.4219 25.3281 47.8438 26.875 44.0625C27.3906 42.6875 27.5625 41.3125 27.5625 39.9375C27.5625 38.9062 28.25 37.875 29.2812 37.5312C29.4531 37.5312 29.7969 37.3594 31 36.8438C32.8906 36.3281 34.2656 34.7812 34.9531 32.8906C35.6406 31 34.7812 28.9375 33.2344 28.0781C32.0312 27.3906 31.3437 26.1875 31.3437 24.8125V24.2969L23.2656 32.375C22.5781 33.0625 21.5469 33.0625 20.8594 32.375C20.5156 32.0312 20.3437 31.5156 20.3437 31L36.8437 14.5C37.1875 14.8438 37.5312 15.1875 38.0468 15.1875H43.2031C43.7187 15.1875 44.0625 15.0156 44.4062 14.6719L50.9375 8.14063C51.7968 7.45313 51.7968 6.42188 51.1093 5.73438ZM16.3906 42.8594C16.0469 43.2031 15.5312 43.375 15.1875 43.375C14.8437 43.375 14.3281 43.2031 13.9844 42.8594L8.8281 37.7031C8.1406 37.0156 8.1406 35.9844 8.8281 35.2969C9.5156 34.6094 10.5469 34.6094 11.2344 35.2969L16.3906 40.4531C17.0781 41.1406 17.0781 42.1719 16.3906 42.8594Z" fill="#323E7D"/>
</svg>
