<svg width="16" height="16" viewBox="0 0 16 16" fill="none" xmlns="http://www.w3.org/2000/svg">
<g clip-path="url(#clip0_75_463)">
<path d="M3.51445 0.0216785C3.13209 0.389119 3.1319 0.989019 3.51388 1.35669C3.51407 1.35687 3.51426 1.35706 3.51445 1.35724L10.3883 8.04184L3.51452 14.6427L3.51446 14.6428C3.1319 15.0104 3.1319 15.6107 3.51446 15.9783C3.8914 16.3406 4.4986 16.3406 4.87555 15.9783L4.87556 15.9783L12.441 8.7074L12.4707 8.6831L12.4783 8.67687L12.4854 8.67005C12.6606 8.50162 12.7568 8.2825 12.7706 8.05824L12.771 8.05061L12.771 8.04297L12.771 7.95702L12.771 7.94938L12.7706 7.94176C12.7568 7.71749 12.6606 7.49838 12.4854 7.32994L12.4855 7.3298L12.4781 7.32321L12.4393 7.28878L4.87555 0.0216786C4.4986 -0.34056 3.8914 -0.34056 3.51445 0.0216785ZM3.51445 0.0216785L3.68768 0.201938M3.51445 0.0216785L3.68768 0.201938M3.68768 0.201938C3.40749 0.471188 3.40749 0.907729 3.68768 1.17698L4.70233 0.201938C4.42214 -0.0673127 3.96786 -0.0673126 3.68768 0.201938Z" fill="#FF4D00" stroke="#FF4D00" stroke-width="0.5"/>
</g>
<defs>
<clipPath id="clip0_75_463">
<rect width="16" height="16" fill="white" transform="matrix(-1 8.74228e-08 8.74228e-08 1 16 0)"/>
</clipPath>
</defs>
</svg>
