<svg width="9" height="9" viewBox="0 0 9 9" fill="none" xmlns="http://www.w3.org/2000/svg">
<g clip-path="url(#clip0_28_365)">
<path d="M1.90152 -0.0666691C2.15588 -0.311105 2.56432 -0.31111 2.81869 -0.066686C2.8187 -0.0666804 2.8187 -0.0666747 2.81871 -0.0666691L7.07172 4.01956L7.09193 4.0375L7.09936 4.04409L7.09922 4.04423C7.21793 4.1583 7.28367 4.30746 7.29304 4.46056L7.2935 4.46819V4.47583V4.52417V4.53181L7.29304 4.53943C7.28367 4.69254 7.21793 4.8417 7.09922 4.95577L7.09213 4.96258L7.08453 4.96882L7.07119 4.97976L2.81872 9.06666L2.81871 9.06667C2.56434 9.31111 2.15589 9.31111 1.90152 9.06667C1.64155 8.81684 1.64155 8.40751 1.90152 8.15769L1.90159 8.15763L5.68645 4.52304L1.90152 0.84231C1.90132 0.84212 1.90113 0.841929 1.90093 0.841738C1.64155 0.591859 1.64175 0.182966 1.90152 -0.0666691ZM1.90152 -0.0666691L2.07475 0.11359L1.90152 -0.0666691Z" fill="#FF4D00" stroke="#FF4D00" stroke-width="0.5"/>
</g>
<defs>
<clipPath id="clip0_28_365">
<rect width="9" height="9" fill="white" transform="matrix(-1 0 0 1 9 0)"/>
</clipPath>
</defs>
</svg>
