<svg width="27" height="29" viewBox="0 0 27 29" fill="none" xmlns="http://www.w3.org/2000/svg">
<path fill-rule="evenodd" clip-rule="evenodd" d="M21.2773 14.5L21.2773 15.9718C21.9478 16.2088 22.5611 16.5671 23.0906 17.0203L24.3666 16.2836L26.2763 19.5914L25.0012 20.3276C25.0639 20.6672 25.0967 21.0173 25.0967 21.375C25.0967 21.7327 25.0639 22.0828 25.0012 22.4224L26.2763 23.1586L24.3666 26.4664L23.0906 25.7297C22.5611 26.1829 21.9478 26.5411 21.2773 26.7782L21.2773 28.25H17.4578L17.4578 26.7782C16.7873 26.5412 16.1741 26.1829 15.6445 25.7297L14.3685 26.4664L12.4587 23.1586L13.7339 22.4224C13.6712 22.0828 13.6384 21.7327 13.6384 21.375C13.6384 21.0173 13.6712 20.6672 13.7339 20.3276L12.4587 19.5914L14.3685 16.2836L15.6444 17.0203C16.174 16.5671 16.7872 16.2089 17.4578 15.9718L17.4578 14.5H21.2773ZM12.1562 13.125C13.4089 13.125 14.587 13.4532 15.6138 14.0305C12.9485 15.398 11.125 18.1736 11.125 21.375C11.125 22.8777 11.5267 24.2865 12.2287 25.5L0.125 25.5V20.55C0.125 16.5518 3.19737 13.2917 7.04619 13.1312L7.34375 13.125H12.1562ZM19.3675 19.0833C18.1019 19.0833 17.0759 20.1093 17.0759 21.375C17.0759 22.6407 18.1019 23.6667 19.3675 23.6667C20.6332 23.6667 21.6592 22.6407 21.6592 21.375C21.6592 20.1093 20.6332 19.0833 19.3675 19.0833ZM9.75 0.75C12.4079 0.75 14.5625 2.90463 14.5625 5.5625C14.5625 8.13177 12.5491 10.2308 10.014 10.3679L9.75 10.375C7.09213 10.375 4.9375 8.22037 4.9375 5.5625C4.9375 2.99323 6.95088 0.894201 9.48595 0.757121L9.75 0.75Z" fill="url(#paint0_linear_77_925)"/>
<defs>
<linearGradient id="paint0_linear_77_925" x1="24.0023" y1="-0.465945" x2="-6.10841" y2="19.4043" gradientUnits="userSpaceOnUse">
<stop stop-color="#FFA52C"/>
<stop offset="1" stop-color="#E8502B"/>
</linearGradient>
</defs>
</svg>
