<svg width="31" height="21" viewBox="0 0 31 21" fill="none" xmlns="http://www.w3.org/2000/svg">
<path d="M28.6253 0.291748H2.37533C1.98855 0.291748 1.61762 0.445394 1.34413 0.718884C1.07064 0.992375 0.916992 1.36331 0.916992 1.75008V19.2501C0.916992 19.6369 1.07064 20.0078 1.34413 20.2813C1.61762 20.5548 1.98855 20.7084 2.37533 20.7084H28.6253C29.0121 20.7084 29.383 20.5548 29.6565 20.2813C29.93 20.0078 30.0837 19.6369 30.0837 19.2501V1.75008C30.0837 1.36331 29.93 0.992375 29.6565 0.718884C29.383 0.445394 29.0121 0.291748 28.6253 0.291748ZM3.83366 17.7917V13.4167C4.99398 13.4167 6.10678 13.8777 6.92725 14.6982C7.74772 15.5186 8.20866 16.6314 8.20866 17.7917H3.83366ZM3.83366 7.58341V3.20841H8.20866C8.20866 4.36874 7.74772 5.48154 6.92725 6.30201C6.10678 7.12248 4.99398 7.58341 3.83366 7.58341ZM15.5003 14.1459C14.7792 14.1459 14.0744 13.9321 13.4748 13.5315C12.8753 13.1309 12.408 12.5615 12.132 11.8953C11.8561 11.2291 11.7839 10.496 11.9245 9.78881C12.0652 9.08159 12.4125 8.43197 12.9223 7.92209C13.4322 7.41221 14.0818 7.06498 14.7891 6.9243C15.4963 6.78363 16.2293 6.85583 16.8955 7.13177C17.5617 7.40771 18.1311 7.87501 18.5317 8.47456C18.9323 9.07412 19.1462 9.779 19.1462 10.5001C19.1462 11.467 18.762 12.3943 18.0783 13.0781C17.3946 13.7618 16.4673 14.1459 15.5003 14.1459ZM27.167 17.7917H22.792C22.792 16.6314 23.2529 15.5186 24.0734 14.6982C24.8939 13.8777 26.0067 13.4167 27.167 13.4167V17.7917ZM27.167 7.58341C26.0067 7.58341 24.8939 7.12248 24.0734 6.30201C23.2529 5.48154 22.792 4.36874 22.792 3.20841H27.167V7.58341Z" fill="url(#paint0_linear_75_440)"/>
<defs>
<linearGradient id="paint0_linear_75_440" x1="27.5474" y1="-0.610999" x2="3.2343" y2="23.4916" gradientUnits="userSpaceOnUse">
<stop stop-color="#FFA52C"/>
<stop offset="1" stop-color="#E8502B"/>
</linearGradient>
</defs>
</svg>
