<svg width="24" height="24" viewBox="0 0 24 24" fill="none" xmlns="http://www.w3.org/2000/svg">
<path d="M1.5998 23.7H22.3998C23.1148 23.7 23.6998 23.115 23.6998 22.4V1.60005C23.6998 0.885049 23.1148 0.300049 22.3998 0.300049H1.5998C0.884805 0.300049 0.299805 0.885049 0.299805 1.60005V22.4C0.299805 23.115 0.884805 23.7 1.5998 23.7ZM4.1998 2.90005C4.9148 2.90005 5.4998 3.48505 5.4998 4.20005C5.4998 4.91505 4.9148 5.50005 4.1998 5.50005C3.4848 5.50005 2.8998 4.91505 2.8998 4.20005C2.8998 3.48505 3.4848 2.90005 4.1998 2.90005ZM21.0998 2.90005V5.50005H6.7998V2.90005H21.0998ZM4.1998 8.10005C4.9148 8.10005 5.4998 8.68505 5.4998 9.40005C5.4998 10.115 4.9148 10.7 4.1998 10.7C3.4848 10.7 2.8998 10.115 2.8998 9.40005C2.8998 8.68505 3.4848 8.10005 4.1998 8.10005ZM21.0998 8.10005V10.7H6.7998V8.10005H21.0998ZM4.1998 13.3C4.9148 13.3 5.4998 13.885 5.4998 14.6C5.4998 15.315 4.9148 15.9 4.1998 15.9C3.4848 15.9 2.8998 15.315 2.8998 14.6C2.8998 13.885 3.4848 13.3 4.1998 13.3ZM21.0998 13.3V15.9H6.7998V13.3H21.0998ZM4.1998 18.5C4.9148 18.5 5.4998 19.085 5.4998 19.8C5.4998 20.515 4.9148 21.1 4.1998 21.1C3.4848 21.1 2.8998 20.515 2.8998 19.8C2.8998 19.085 3.4848 18.5 4.1998 18.5ZM21.0998 18.5V21.1H6.7998V18.5H21.0998Z" fill="url(#paint0_linear_77_890)"/>
<defs>
<linearGradient id="paint0_linear_77_890" x1="21.665" y1="-0.734609" x2="-4.43991" y2="17.3806" gradientUnits="userSpaceOnUse">
<stop stop-color="#FFA52C"/>
<stop offset="1" stop-color="#E8502B"/>
</linearGradient>
</defs>
</svg>
