<svg width="32" height="28" viewBox="0 0 32 28" fill="none" xmlns="http://www.w3.org/2000/svg">
<path d="M23.5941 7.69277C23.5941 7.15517 23.1589 6.71997 22.6213 6.71997H5.60366C5.06606 6.71997 4.63086 7.15517 4.63086 7.69277C4.63086 8.23037 5.06606 8.66557 5.60366 8.66557H22.6213C23.1589 8.66557 23.5941 8.23037 23.5941 7.69277Z" fill="url(#paint0_linear_75_432)"/>
<path d="M19.0373 13.5072C19.0373 12.9696 18.6021 12.5344 18.0645 12.5344H5.60366C5.06606 12.5344 4.63086 12.9696 4.63086 13.5072C4.63086 14.0448 5.06606 14.48 5.60366 14.48H18.0677C18.6021 14.4768 19.0373 14.0416 19.0373 13.5072Z" fill="url(#paint1_linear_75_432)"/>
<path d="M5.60366 18.365C5.06606 18.365 4.63086 18.8002 4.63086 19.3378C4.63086 19.8754 5.06606 20.3106 5.60366 20.3106H11.6165C12.1541 20.3106 12.5893 19.8754 12.5893 19.3378C12.5893 18.8002 12.1541 18.365 11.6165 18.365H5.60366Z" fill="url(#paint2_linear_75_432)"/>
<path d="M25.5811 23.2289C25.5811 24.3009 24.7107 25.1713 23.6387 25.1713H4.20511C3.13311 25.1713 2.26271 24.3009 2.26271 23.2289V4.77128C2.26271 3.69928 3.13311 2.82888 4.20511 2.82888H5.17791C5.20351 2.82888 5.23231 2.82888 5.25791 2.82568H22.5859C22.6115 2.82888 22.6403 2.82888 22.6659 2.82888H23.6387C24.7107 2.82888 25.5811 3.69928 25.5811 4.77128V5.56168L27.5235 5.32808V4.77128C27.5235 2.62408 25.7827 0.886479 23.6387 0.886479H23.5875H22.6659H5.17791H4.56031H4.20511C2.06111 0.883279 0.320312 2.62408 0.320312 4.77128V23.2321C0.320312 25.3793 2.06111 27.1169 4.20511 27.1169H23.6355C25.7827 27.1169 27.5203 25.3761 27.5203 23.2321V17.5585L25.5779 17.7921L25.5811 23.2289Z" fill="url(#paint3_linear_75_432)"/>
<path d="M31.4278 9.30569L29.1014 6.97929C28.7654 6.64329 28.2214 6.64329 27.8854 6.97929L26.5094 8.35529C26.503 8.3617 26.4966 8.3681 26.4902 8.3745L30.0326 11.9169C30.039 11.9105 30.0454 11.9041 30.0518 11.8977L31.4278 10.5217C31.7638 10.1857 31.7638 9.64169 31.4278 9.30569Z" fill="url(#paint4_linear_75_432)"/>
<path d="M17.2576 17.5714L17.248 21.1074L20.8704 21.1138L29.2608 12.7234L25.6864 9.14575L17.2576 17.5714ZM21.0624 19.2802L20.016 19.3602L20.1056 18.2338L18.9952 18.269L19.1392 17.3026L20.3904 16.0514L22.3392 18.0002L21.0624 19.2802ZM25.9488 10.8418C26.064 10.957 26.064 11.1394 25.9488 11.2546L21.4784 15.725C21.3632 15.8402 21.1808 15.8402 21.0656 15.725C20.9504 15.6098 20.9504 15.4274 21.0656 15.3122L25.5392 10.8386C25.6512 10.7266 25.8368 10.7266 25.9488 10.8418Z" fill="url(#paint5_linear_75_432)"/>
<defs>
<linearGradient id="paint0_linear_75_432" x1="21.9451" y1="6.63394" x2="21.2746" y2="11.1688" gradientUnits="userSpaceOnUse">
<stop stop-color="#FFA52C"/>
<stop offset="1" stop-color="#E8502B"/>
</linearGradient>
<linearGradient id="paint1_linear_75_432" x1="17.7845" y1="12.4484" x2="16.9156" y2="16.9133" gradientUnits="userSpaceOnUse">
<stop stop-color="#FFA52C"/>
<stop offset="1" stop-color="#E8502B"/>
</linearGradient>
<linearGradient id="paint2_linear_75_432" x1="11.8972" y1="18.279" x2="10.4449" y2="22.4013" gradientUnits="userSpaceOnUse">
<stop stop-color="#FFA52C"/>
<stop offset="1" stop-color="#E8502B"/>
</linearGradient>
<linearGradient id="paint3_linear_75_432" x1="25.158" y1="-0.273333" x2="-4.4624" y2="21.0437" gradientUnits="userSpaceOnUse">
<stop stop-color="#FFA52C"/>
<stop offset="1" stop-color="#E8502B"/>
</linearGradient>
<linearGradient id="paint4_linear_75_432" x1="31.2286" y1="6.49783" x2="25.4391" y2="10.5154" gradientUnits="userSpaceOnUse">
<stop stop-color="#FFA52C"/>
<stop offset="1" stop-color="#E8502B"/>
</linearGradient>
<linearGradient id="paint5_linear_75_432" x1="28.2163" y1="8.61657" x2="14.8474" y2="17.9284" gradientUnits="userSpaceOnUse">
<stop stop-color="#FFA52C"/>
<stop offset="1" stop-color="#E8502B"/>
</linearGradient>
</defs>
</svg>
