<svg width="54" height="54" viewBox="0 0 54 54" fill="none" xmlns="http://www.w3.org/2000/svg">
<g clip-path="url(#clip0_28_213)">
<path d="M2.88965 15.8958V34.4517C3.51487 33.5626 4.18024 32.7251 4.86283 31.9795C7.29488 29.3122 10.2374 27.253 13.6102 25.8534C15.1933 25.1938 16.8625 24.689 18.5718 24.3563C20.241 24.0294 21.9503 23.863 23.6596 23.863C24.1586 23.863 24.6576 23.8745 25.1509 23.9031V15.8957C25.1509 14.6281 24.1242 13.6013 22.8565 13.6013H5.18398C3.91639 13.6014 2.88965 14.6281 2.88965 15.8958Z" fill="#323E7D"/>
<path d="M46.6322 45.6255C46.1045 45.2927 45.6284 44.8282 45.181 44.1915C45.0491 44.0079 44.7393 43.5204 44.3665 42.878C44.3838 43.6179 44.3665 44.1972 44.3493 44.4209C44.2747 45.4534 44.0051 46.2679 43.5234 46.9218C43.0185 47.6044 42.2959 48.0862 41.3724 48.3443L41.2977 48.3673L41.2691 48.373C40.598 48.5509 39.8924 48.6083 39.2099 48.6656C38.5388 48.723 37.9021 48.7745 37.3112 48.9237C37.1506 48.9638 36.9785 48.9868 36.8123 48.9868C36.0838 48.9868 35.4127 48.5911 35.0628 47.9486C34.7702 47.4151 34.3745 46.9161 33.95 46.3884C33.2904 45.5567 32.6078 44.7021 32.3325 43.6352C31.9941 42.3331 32.3611 41.0597 33.4166 39.8609C32.929 39.987 32.4587 40.0502 32.0285 40.0502C30.8296 40.0502 29.8316 39.5855 29.063 38.6621C28.4894 37.9738 28.128 37.1478 27.7838 36.3505C27.5142 35.731 27.2619 35.1459 26.9291 34.6354C26.4301 33.8725 26.5104 32.8687 27.1299 32.1919C27.5429 31.7445 27.887 31.2053 28.2542 30.6374C28.9999 29.4844 29.8431 28.1709 31.3688 27.7465C31.6843 27.6605 32.017 27.6146 32.3554 27.6146C32.7282 27.6146 33.1068 27.6661 33.5026 27.7752C33.3821 27.5515 33.2846 27.3278 33.21 27.1041C32.3382 26.7427 31.4433 26.4387 30.537 26.192C28.7704 25.7102 26.9635 25.4291 25.1509 25.3316C24.6519 25.3029 24.1586 25.2915 23.6595 25.2915C17.241 25.2915 10.6618 27.7522 5.9239 32.9433C4.89142 34.079 3.82453 35.5073 2.8953 37.1019C0.0273139 42.0119 -1.59023 48.4763 2.76911 52.6522C3.6123 53.461 4.6333 54.0001 5.73461 54.0001H41.5845C45.7087 54.0001 47.0623 49.962 46.9763 45.8149C46.8559 45.7574 46.7412 45.6943 46.6322 45.6255ZM4.18022 44.3291C4.57027 42.2413 5.39625 40.2451 6.4574 38.4153C7.18014 37.1591 8.02333 35.9717 8.99271 34.8934C11.6083 31.9681 15.0614 29.8802 18.8586 28.8936C20.6826 28.4175 22.6501 28.211 24.5429 28.4118C24.824 28.4404 24.8928 28.8248 24.6347 28.9452C24.6347 28.9452 24.629 28.9452 24.629 28.951C24.1644 29.169 23.694 29.3697 23.2294 29.5877C22.3116 30.0179 21.3997 30.471 20.5106 30.9586C18.721 31.9337 17.0059 33.0408 15.4171 34.3141C12.572 36.5913 10.0654 39.2987 8.08648 42.3617C6.72132 44.4726 5.6028 46.7555 4.82271 49.1474C4.73667 49.417 4.35236 49.4227 4.26058 49.1532V49.1474C3.76723 47.6388 3.89342 45.8606 4.18022 44.3291Z" fill="#323E7D"/>
<path d="M39.468 26.2779C39.4738 26.2779 39.4795 26.2779 39.4795 26.2779C39.4967 26.2779 39.5024 26.2951 39.5082 26.3008L41.229 30.6143L41.2806 30.7405C41.3724 30.9642 41.5674 31.1191 41.7911 31.1649C41.8312 31.1707 41.8771 31.1764 41.923 31.1764C41.9861 31.1764 42.0492 31.1707 42.1123 31.1534C42.2786 31.1076 42.422 30.9986 42.5138 30.8438C43.4143 29.3237 43.7987 25.8362 43.8216 24.9815C43.9076 22.3545 42.164 22.0275 40.3169 21.6833C39.6229 21.5514 38.9059 21.4195 38.2175 21.1614C38.1544 21.1384 38.0856 21.127 38.0225 21.127C37.9709 21.127 37.9193 21.1327 37.8734 21.1499C37.7472 21.1843 37.6382 21.2646 37.5636 21.3736C37.1507 21.9759 36.6344 22.4979 36.1411 23.0026C35.2062 23.9605 34.3056 24.8725 34.4318 26.0828C34.4605 26.3754 34.5523 26.6793 34.7128 27.0063C34.8218 27.2301 34.9709 27.4652 35.1545 27.7119C35.252 27.838 35.4069 28.0331 35.6076 28.274C36.4967 29.3179 38.2691 31.1764 39.5769 31.7672C39.6687 31.8073 39.7662 31.8303 39.8579 31.8303C39.9211 31.8303 39.9784 31.8246 40.0358 31.8074C40.1218 31.7845 40.2021 31.7443 40.2652 31.6927C40.4774 31.5321 40.5864 31.2567 40.5234 30.9814L40.5119 30.947L40.2308 29.7424L39.4335 26.3295C39.4394 26.3065 39.4336 26.2836 39.468 26.2779Z" fill="#323E7D"/>
<path d="M51.6283 35.9718C50.9801 35.7825 48.68 35.2893 46.8961 35.2893C46.4315 35.2893 46.0071 35.3237 45.6514 35.404C45.5138 35.4384 45.3876 35.5073 45.3015 35.6105C45.2212 35.6966 45.1639 35.8113 45.1352 35.9318C45.0836 36.1841 45.1696 36.4422 45.3704 36.6086L46.3111 37.3887L49.0471 39.6659C49.0643 39.6774 49.0643 39.6889 49.0586 39.6946C49.0528 39.7118 49.0413 39.7233 49.0299 39.729C49.0299 39.729 49.0299 39.729 49.0241 39.729C49.0184 39.729 49.0126 39.729 49.0012 39.7233L46.7929 38.3868L45.6629 37.6985L44.9172 37.2453C44.8082 37.1765 44.682 37.1421 44.5616 37.1421C44.5558 37.1421 44.5558 37.1421 44.5501 37.1421C44.4928 37.1421 44.4354 37.1536 44.378 37.165C44.0511 37.2568 43.8389 37.5665 43.8733 37.9049C44.0683 39.6602 45.8694 42.6716 46.3627 43.3713C46.5233 43.595 46.6839 43.7901 46.8502 43.9622C47.0969 44.2145 47.355 44.4096 47.6303 44.5415C47.8655 44.6562 48.1064 44.725 48.3645 44.748C48.4391 44.7538 48.5137 44.7595 48.5882 44.7595C48.8464 44.7595 49.1217 44.7193 49.4085 44.639C49.9706 44.4841 50.5442 44.1973 51.1465 43.8991C51.7774 43.5836 52.4313 43.2624 53.1369 43.0501C53.3835 42.9756 53.5499 42.7461 53.5384 42.488C53.5097 41.7595 53.6015 41.0311 53.6933 40.3312C53.9227 38.4612 54.1463 36.7003 51.6283 35.9718Z" fill="#323E7D"/>
<path d="M53.6072 26.7599C53.6187 26.5017 53.4524 26.2723 53.2057 26.2035C52.5059 25.997 51.8463 25.6758 51.2153 25.366C50.3263 24.93 49.4831 24.5171 48.6628 24.5171C48.4621 24.5171 48.267 24.54 48.072 24.5973C47.4755 24.7637 46.9363 25.1939 46.4373 25.9166C45.9497 26.6164 44.1658 29.6393 43.9765 31.3945C43.9536 31.6239 44.0397 31.8419 44.2118 31.991C44.3379 32.0999 44.4986 32.1573 44.6592 32.1573C44.7223 32.1573 44.7796 32.1516 44.8427 32.1344C44.9058 32.1172 44.9632 32.0885 45.0205 32.0541L49.0931 29.5532C49.0988 29.5474 49.1046 29.5474 49.1046 29.5474H49.1103C49.1275 29.5474 49.139 29.5704 49.139 29.5704C49.1504 29.5933 49.139 29.6048 49.1275 29.6105L45.4679 32.685C45.2672 32.8571 45.1811 33.121 45.2443 33.3791C45.3074 33.6372 45.5082 33.8265 45.7605 33.8839C46.1104 33.9585 46.5234 33.9928 46.9536 33.9928C47.6534 33.9928 48.3991 33.9182 49.0014 33.8322C50.2288 33.6601 51.2728 33.4192 51.6571 33.3102C51.6858 33.3044 51.7145 33.293 51.7374 33.2873C54.2555 32.5416 54.0204 30.7807 53.7679 28.9222C53.6761 28.2111 53.5786 27.4884 53.6072 26.7599Z" fill="#323E7D"/>
<path d="M32.3495 29.0542C32.1373 29.0542 31.9366 29.0829 31.7472 29.1345C30.7434 29.4155 30.1183 30.3906 29.4528 31.4231C29.0686 32.0196 28.6727 32.6334 28.1795 33.1726C28.0074 33.3619 27.9845 33.6429 28.1221 33.8609C28.5237 34.4746 28.8105 35.14 29.0973 35.7939C29.7282 37.2451 30.3305 38.6332 32.0283 38.6332C32.3438 38.6332 32.6937 38.5873 33.0952 38.4841C33.1182 38.4783 33.1469 38.4726 33.1755 38.4611C33.5598 38.3522 34.5808 38.0252 35.7166 37.5377C36.6229 37.1476 37.8447 36.5511 38.5157 35.9086C38.7051 35.7251 38.7738 35.4612 38.6993 35.2088C38.619 34.9565 38.4067 34.7729 38.1486 34.7328L33.4279 33.9928C33.4107 33.9928 33.3992 33.9871 33.3992 33.9641C33.3992 33.9641 33.3992 33.9297 33.4221 33.924C33.4279 33.924 33.4336 33.924 33.4393 33.924L38.2175 33.9585H38.2232C38.2863 33.9585 38.3494 33.9527 38.4125 33.9355C38.6304 33.8724 38.8083 33.7061 38.8772 33.4881C38.9517 33.2701 38.9116 33.0407 38.7739 32.8572C37.707 31.4461 34.6153 29.7827 33.8409 29.4385C33.2845 29.1747 32.797 29.0542 32.3495 29.0542Z" fill="#323E7D"/>
<path d="M43.5348 35.5243C43.7011 35.3007 43.8274 35.0482 43.8904 34.7672C43.9363 34.555 43.9536 34.3312 43.9249 34.1018C43.8044 33.1152 42.967 32.3982 41.9975 32.3982C41.9918 32.3982 41.9918 32.3982 41.9861 32.3982C41.9115 32.3982 41.8312 32.404 41.7509 32.4154C41.5444 32.4383 41.3494 32.4957 41.1716 32.5817C40.4259 32.9259 39.9555 33.7232 40.0645 34.5836C40.185 35.5701 41.0224 36.2871 41.9918 36.2871C42.072 36.2871 42.1524 36.2814 42.2327 36.2699C42.7719 36.2069 43.2308 35.9258 43.5348 35.5243Z" fill="#323E7D"/>
<path d="M36.319 47.2718C36.4165 47.4553 36.6116 47.5644 36.8123 47.5644C36.8582 47.5644 36.9041 47.5586 36.9557 47.5471C37.6613 47.3636 38.3897 47.3062 39.0953 47.2489C39.7721 47.1915 40.4087 47.1399 40.9652 46.985C42.2099 46.6408 42.8122 45.8206 42.9212 44.3292C42.9843 43.4803 42.9671 39.9699 42.2271 38.3638C42.1124 38.1171 41.8657 37.9681 41.6019 37.9681C41.5388 37.9681 41.4758 37.9738 41.4126 37.9967C41.2291 38.0483 41.0799 38.1688 40.9882 38.3409L38.7684 42.5741C38.7626 42.5913 38.7512 42.5913 38.7512 42.5913H38.7454C38.734 42.5913 38.7167 42.5855 38.711 42.5741C38.7052 42.5683 38.6995 42.5626 38.7052 42.5396L40.2711 38.0254C40.3572 37.7845 40.2998 37.5149 40.1219 37.3256C39.99 37.1822 39.8065 37.1077 39.623 37.1077C39.5484 37.1077 39.4796 37.1191 39.4049 37.1421C37.7301 37.6985 35.1603 40.0904 34.581 40.7156C32.7971 42.6486 33.9041 44.0367 35.0743 45.5051C35.516 46.0558 35.9692 46.6294 36.319 47.2718Z" fill="#323E7D"/>
<path d="M13.2889 7.48689C13.5757 6.90182 14.4074 6.90182 14.6999 7.48116C15.2047 8.49643 15.8471 9.94763 16.1167 11.2726C19.0076 9.592 16.6387 3.79866 15.0728 0.67255C14.6196 -0.227998 13.329 -0.222262 12.8873 0.678286C11.3616 3.79292 9.06145 9.54037 11.9122 11.2497C12.1703 9.93042 12.7956 8.49643 13.2889 7.48689Z" fill="#323E7D"/>
</g>
<defs>
<clipPath id="clip0_28_213">
<rect width="54" height="54" fill="white"/>
</clipPath>
</defs>
</svg>
