<svg width="44" height="41" viewBox="0 0 44 41" fill="none" xmlns="http://www.w3.org/2000/svg">
<path d="M42.6219 29.3406C42.0344 28.7531 41.1531 28.7531 40.5656 29.3406C40.125 29.7812 39.8312 30.0749 39.3906 30.5156L35.7188 21.4093C35.7188 21.2624 35.5719 21.1156 35.5719 20.9687L41.3 22.4375C41.7406 22.5843 42.3281 22.4374 42.6219 22.1437C42.9156 21.8499 43.2094 21.4093 43.0625 20.8218L42.0344 12.0093C41.5938 9.51245 39.5375 7.74995 37.1875 7.74995C35.8656 7.74995 34.6906 8.33745 33.8094 9.2187L30.8719 12.1562H20.7375L19.1219 7.4562C18.2406 5.1062 16.625 3.19683 14.4219 1.87495C11.3375 -0.181299 7.225 -0.181299 4.14062 1.87495L1.20312 3.63745C0.615625 3.78433 0.46875 4.37183 0.46875 4.95933L1.9375 16.7093C2.08438 17.4437 2.67188 18.0312 3.40625 18.0312H6.34375C6.93125 18.0312 7.37188 17.7374 7.66563 17.15L8.84062 14.8C9.42812 19.0593 8.84062 23.3187 7.07812 27.2843L5.60938 30.5156C5.31563 30.2218 4.875 29.7812 4.43438 29.3406C3.84687 28.7531 2.96563 28.7531 2.37812 29.3406C1.79062 29.9281 1.79062 30.8093 2.37812 31.3968C7.66562 36.9781 14.8625 40.0624 22.5 40.0624C30.1375 40.0624 37.3344 36.9781 42.6219 31.3968C43.2094 30.8093 43.2094 29.9281 42.6219 29.3406ZM12.0719 34.7749C13.9812 30.9562 18.0938 28.3124 22.5 28.3124C26.9062 28.3124 31.0188 30.9562 32.9281 34.7749C29.6969 36.2437 26.1719 37.1249 22.5 37.1249C18.8281 37.1249 15.3031 36.2437 12.0719 34.7749Z" fill="#323E7D"/>
</svg>
