<svg width="16" height="16" viewBox="0 0 16 16" fill="none" xmlns="http://www.w3.org/2000/svg">
<g clip-path="url(#clip0_77_1039)">
<path d="M15.9783 3.51519C15.6109 3.13282 15.011 3.13263 14.6433 3.51462C14.6431 3.51481 14.6429 3.515 14.6428 3.51519L7.95816 10.389L1.3573 3.51525L1.35724 3.51519C0.98962 3.13263 0.389304 3.13263 0.0216818 3.51519C-0.340555 3.89214 -0.340555 4.49933 0.0216818 4.87628L0.0216904 4.87629L7.2926 12.4418L7.3169 12.4714L7.32313 12.479L7.32995 12.4861C7.49838 12.6614 7.7175 12.7576 7.94176 12.7713L7.94939 12.7718L7.95702 12.7718L8.04298 12.7718L8.05062 12.7718L8.05824 12.7713C8.28251 12.7576 8.50162 12.6614 8.67006 12.4861L8.6702 12.4862L8.67679 12.4788L8.71122 12.44L15.9783 4.87628C16.3406 4.49933 16.3406 3.89214 15.9783 3.51519ZM15.9783 3.51519L15.7981 3.68841M15.9783 3.51519L15.7981 3.68841M15.7981 3.68841C15.5288 3.40823 15.0923 3.40823 14.823 3.68841L15.7981 4.70306C16.0673 4.42287 16.0673 3.9686 15.7981 3.68841Z" fill="black" stroke="black" stroke-width="0.5"/>
</g>
<defs>
<clipPath id="clip0_77_1039">
<rect width="16" height="16" fill="white" transform="matrix(1.19249e-08 -1 -1 -1.19249e-08 16 16)"/>
</clipPath>
</defs>
</svg>
