<svg width="28" height="28" viewBox="0 0 28 28" fill="none" xmlns="http://www.w3.org/2000/svg">
<path d="M25.9883 11.3334H23.8937C23.6167 11.3276 23.3478 11.2388 23.1218 11.0786C22.8957 10.9184 22.7229 10.6942 22.6257 10.4347L22.619 10.4174C22.5061 10.1651 22.4712 9.8849 22.5187 9.61264C22.5662 9.34038 22.694 9.08853 22.8857 8.88941L24.3657 7.40941C24.6181 7.15688 24.7599 6.81446 24.7599 6.45741C24.7599 6.10037 24.6181 5.75794 24.3657 5.50541L22.499 3.63875C22.2465 3.38634 21.904 3.24456 21.547 3.24456C21.1899 3.24456 20.8475 3.38634 20.595 3.63875L19.115 5.11875C18.9159 5.31041 18.664 5.43819 18.3918 5.48571C18.1195 5.53322 17.8393 5.4983 17.587 5.38541H17.5697C17.3077 5.28789 17.0814 5.11348 16.9203 4.88506C16.7592 4.65665 16.6709 4.38489 16.667 4.10541V2.01208C16.667 1.65528 16.5253 1.31309 16.273 1.06079C16.0207 0.808488 15.6785 0.666748 15.3217 0.666748H12.679C12.3222 0.666748 11.98 0.808488 11.7277 1.06079C11.4754 1.31309 11.3337 1.65528 11.3337 2.01208V4.10541C11.3279 4.38258 11.2392 4.65167 11.079 4.87793C10.9188 5.10419 10.6945 5.27724 10.435 5.37475H10.4177C10.1654 5.48763 9.88514 5.52256 9.61289 5.47504C9.34063 5.42753 9.08878 5.29974 8.88966 5.10808L7.40966 3.62808C7.15713 3.37568 6.8147 3.23389 6.45766 3.23389C6.10062 3.23389 5.75819 3.37568 5.50566 3.62808L3.63899 5.49475C3.38659 5.74728 3.2448 6.08971 3.2448 6.44675C3.2448 6.80379 3.38659 7.14622 3.63899 7.39875L5.11899 8.87875C5.31065 9.07787 5.43844 9.32972 5.48595 9.60198C5.53347 9.87423 5.49854 10.1545 5.38566 10.4067V10.4241C5.28945 10.6872 5.11575 10.9149 4.88747 11.0772C4.6592 11.2396 4.38707 11.3289 4.10699 11.3334H2.01233C1.65552 11.3334 1.31333 11.4752 1.06103 11.7275C0.808732 11.9798 0.666992 12.3219 0.666992 12.6787V15.3214C0.666992 15.6782 0.808732 16.0204 1.06103 16.2727C1.31333 16.525 1.65552 16.6667 2.01233 16.6667H4.10699C4.38398 16.6726 4.65285 16.7613 4.87888 16.9215C5.10492 17.0817 5.27773 17.306 5.37499 17.5654V17.5827C5.48787 17.835 5.5228 18.1153 5.47529 18.3875C5.42777 18.6598 5.29998 18.9116 5.10833 19.1107L3.62833 20.5907C3.37592 20.8433 3.23413 21.1857 3.23413 21.5427C3.23413 21.8998 3.37592 22.2422 3.62833 22.4947L5.49499 24.3614C5.74752 24.6138 6.08995 24.7556 6.44699 24.7556C6.80403 24.7556 7.14646 24.6138 7.39899 24.3614L8.87899 22.8814C9.07811 22.6898 9.32996 22.562 9.60222 22.5145C9.87448 22.4669 10.1547 22.5019 10.407 22.6147L10.4243 22.6214C10.6864 22.7172 10.9134 22.8899 11.0756 23.1169C11.2379 23.3438 11.3278 23.6145 11.3337 23.8934V25.9881C11.3337 26.3449 11.4754 26.6871 11.7277 26.9394C11.98 27.1917 12.3222 27.3334 12.679 27.3334H15.3217C15.4983 27.3334 15.6733 27.2986 15.8365 27.231C15.9997 27.1634 16.148 27.0643 16.273 26.9394C16.3979 26.8144 16.497 26.6661 16.5646 26.5029C16.6322 26.3397 16.667 26.1648 16.667 25.9881V23.8934C16.6728 23.6164 16.7616 23.3476 16.9218 23.1215C17.082 22.8955 17.3062 22.7227 17.5657 22.6254L17.583 22.6187C17.8353 22.5059 18.1155 22.4709 18.3878 22.5185C18.66 22.566 18.9119 22.6938 19.111 22.8854L20.591 24.3654C20.8435 24.6178 21.1859 24.7596 21.543 24.7596C21.9 24.7596 22.2425 24.6178 22.495 24.3654L24.3617 22.4987C24.6141 22.2462 24.7558 21.9038 24.7558 21.5467C24.7558 21.1897 24.6141 20.8473 24.3617 20.5947L22.8817 19.1147C22.69 18.9156 22.5622 18.6638 22.5147 18.3915C22.4672 18.1193 22.5021 17.839 22.615 17.5867L22.6217 17.5694C22.7185 17.3086 22.8917 17.0831 23.1186 16.9221C23.3454 16.7611 23.6155 16.6721 23.8937 16.6667H25.9883C26.3451 16.6667 26.6873 16.525 26.9396 16.2727C27.1919 16.0204 27.3337 15.6782 27.3337 15.3214V12.6787C27.3337 12.5021 27.2989 12.3271 27.2313 12.1639C27.1636 12.0007 27.0645 11.8524 26.9396 11.7275C26.8147 11.6025 26.6664 11.5034 26.5032 11.4358C26.3399 11.3682 26.165 11.3334 25.9883 11.3334ZM14.0003 18.0001C13.2092 18.0001 12.4358 17.7655 11.778 17.326C11.1202 16.8864 10.6076 16.2617 10.3048 15.5308C10.0021 14.7999 9.92284 13.9956 10.0772 13.2197C10.2315 12.4438 10.6125 11.7311 11.1719 11.1717C11.7313 10.6122 12.444 10.2313 13.22 10.0769C13.9959 9.9226 14.8002 10.0018 15.5311 10.3046C16.262 10.6073 16.8867 11.12 17.3262 11.7778C17.7657 12.4356 18.0003 13.209 18.0003 14.0001C18.0003 15.0609 17.5789 16.0784 16.8288 16.8285C16.0786 17.5787 15.0612 18.0001 14.0003 18.0001Z" fill="url(#paint0_linear_77_887)"/>
<defs>
<linearGradient id="paint0_linear_77_887" x1="25.0148" y1="-0.51235" x2="-4.73439" y2="20.1318" gradientUnits="userSpaceOnUse">
<stop stop-color="#FFA52C"/>
<stop offset="1" stop-color="#E8502B"/>
</linearGradient>
</defs>
</svg>
