<svg width="42" height="43" viewBox="0 0 42 43" fill="none" xmlns="http://www.w3.org/2000/svg">
<path fill-rule="evenodd" clip-rule="evenodd" d="M5.1496 7.43921C0.939288 12.2908 -0.663837 18.602 0.30085 24.5786C4.98929 23.5126 9.61585 24.2495 13.033 26.9186L18.8268 21.122L5.1496 7.43921Z" fill="#323E7D"/>
<path fill-rule="evenodd" clip-rule="evenodd" d="M17.457 41.8585C23.4814 42.8766 29.8545 41.2848 34.7511 37.0379L20.9445 23.2341L15.1479 29.0307C17.8339 32.4676 18.5623 37.1335 17.457 41.8585Z" fill="#323E7D"/>
<path fill-rule="evenodd" clip-rule="evenodd" d="M0.995605 27.5739C1.82811 30.1923 3.22029 32.6589 5.10186 34.8498L10.7887 29.1657C8.1506 27.2504 4.62092 26.761 0.995605 27.5739Z" fill="#323E7D"/>
<path fill-rule="evenodd" clip-rule="evenodd" d="M14.4729 41.1414C15.3111 37.4908 14.8217 33.933 12.8979 31.2751L7.20264 36.9705C9.39076 38.8773 11.8573 40.2892 14.4729 41.1414Z" fill="#323E7D"/>
<path fill-rule="evenodd" clip-rule="evenodd" d="M36.9785 34.7934C41.1579 29.8969 42.7104 23.5406 41.6698 17.5444C36.9926 18.6019 32.3773 17.8622 28.9742 15.1987L23.1804 20.9953L36.9785 34.7934Z" fill="#323E7D"/>
<path fill-rule="evenodd" clip-rule="evenodd" d="M24.4884 0.49227C18.54 -0.49773 12.2512 1.06039 7.39404 5.20883L21.0656 18.8832L26.8622 13.0866C24.2184 9.70602 23.4675 5.13289 24.4884 0.49227Z" fill="#323E7D"/>
<path fill-rule="evenodd" clip-rule="evenodd" d="M40.9303 14.5575C40.0781 11.9728 38.6775 9.54 36.7931 7.38281L31.2244 12.9516C33.8428 14.8472 37.3359 15.3422 40.9303 14.5575Z" fill="#323E7D"/>
<path fill-rule="evenodd" clip-rule="evenodd" d="M27.4922 1.20386C26.7244 4.77292 27.2278 8.23792 29.1066 10.8395L34.6725 5.27636C32.5097 3.41448 30.0741 2.03917 27.4922 1.20386Z" fill="#323E7D"/>
</svg>
