<?xml version="1.0" encoding="utf-8"?><svg xmlns="http://www.w3.org/2000/svg" xmlns:xlink="http://www.w3.org/1999/xlink"><symbol viewBox="0 0 311 311.077" xml:space="preserve" id="close" xmlns="http://www.w3.org/2000/svg">
    <path d="M16.035 311.078c-4.097 0-8.195-1.558-11.308-4.695-6.25-6.25-6.25-16.383 0-22.633L283.789 4.687c6.25-6.25 16.383-6.25 22.633 0s6.25 16.383 0 22.637L27.363 306.383a16.045 16.045 0 0 1-11.328 4.695zm0 0" data-original="#000000"/>
    <path d="M295.117 311.078a15.879 15.879 0 0 1-11.308-4.695L4.727 27.324c-6.25-6.254-6.25-16.386 0-22.636s16.382-6.25 22.636 0L306.422 283.75c6.25 6.25 6.25 16.383 0 22.633-3.137 3.117-7.23 4.695-11.305 4.695zm0 0" data-original="#000000"/>
</symbol><symbol viewBox="0 0 27 23" id="heart" xmlns="http://www.w3.org/2000/svg">
    <path d="M26.73 7.07c0 2.176-1.129 4.39-3.383 6.644l-9.196 8.862a.892.892 0 0 1-.651.264.892.892 0 0 1-.65-.264l-9.213-8.889a4.531 4.531 0 0 1-.405-.383c-.173-.178-.446-.5-.82-.967-.376-.467-.711-.947-1.005-1.439-.295-.491-.56-1.088-.791-1.787A6.467 6.467 0 0 1 .27 7.069c0-2.165.624-3.858 1.877-5.078C3.397.77 5.125.16 7.33.16c.61 0 1.233.104 1.868.315a7.617 7.617 0 0 1 1.771.856c.545.36 1.015.697 1.41 1.01.391.316.766.65 1.12 1.004.354-.354.726-.688 1.12-1.004.395-.316.865-.654 1.413-1.01a7.614 7.614 0 0 1 1.77-.856 5.914 5.914 0 0 1 1.87-.316c2.205 0 3.93.61 5.183 1.83 1.25 1.224 1.874 2.917 1.874 5.08Zm-1.89 0c0-.797-.105-1.502-.316-2.112-.213-.61-.483-1.096-.813-1.453a3.862 3.862 0 0 0-1.204-.877 5.315 5.315 0 0 0-1.388-.456 8.796 8.796 0 0 0-1.447-.12c-.51 0-1.064.128-1.652.376a7.628 7.628 0 0 0-1.631.945c-.497.38-.923.735-1.277 1.064-.354.33-.65.63-.886.907-.178.216-.418.324-.723.324s-.548-.108-.724-.324c-.235-.275-.53-.578-.886-.91-.353-.33-.78-.683-1.277-1.06a7.453 7.453 0 0 0-1.63-.946c-.592-.25-1.142-.378-1.653-.378-.513 0-.996.04-1.447.119a5.395 5.395 0 0 0-1.388.459 3.937 3.937 0 0 0-1.204.877c-.332.36-.6.846-.813 1.456-.216.607-.321 1.312-.321 2.108 0 1.653.92 3.403 2.762 5.244L13.5 20.58l8.564-8.254c1.85-1.85 2.776-3.601 2.776-5.257Z"/>
</symbol><symbol viewBox="0 0 26 14" id="menu" xmlns="http://www.w3.org/2000/svg">
    <rect width="26" height="2" rx="1"/>
    <rect y="6" width="20" height="2" rx="1"/>
    <rect y="12" width="12" height="2" rx="1"/>
</symbol><symbol viewBox="0 0 21 21" id="statistic" xmlns="http://www.w3.org/2000/svg">
    <g clip-path="url(#da)">
        <path d="M1.665 8.784h1.93v8.574h-1.93V8.784ZM7.55.21h1.93v17.15H7.55V.21ZM13.432 7.07h1.93v10.29h-1.93V7.07ZM18.86.21h1.93v17.15h-1.93V.21ZM.21 18.646h20.58v2.144H.21v-2.144Z"/>
    </g>
    <defs>
        <clipPath id="da">
            <path d="M0 0h21v21H0z"/>
        </clipPath>
    </defs>
</symbol><symbol viewBox="0 0 27 26" id="user" xmlns="http://www.w3.org/2000/svg">
    <path d="M13.502 16.798c3.851 0 6.983-3.768 6.983-8.399C20.485 3.77 17.354 0 13.502 0c-1.907 0-3.685.902-5.008 2.536C7.22 4.111 6.518 6.193 6.518 8.4c0 4.631 3.132 8.4 6.984 8.4Zm0-14.956c2.824 0 5.12 2.942 5.12 6.557 0 3.618-2.3 6.557-5.12 6.557-2.825 0-5.12-2.939-5.123-6.557 0-3.615 2.295-6.557 5.123-6.557Zm5.864 14.034a.925.925 0 0 0-.93.92c0 .507.416.919.93.919 3.183 0 5.773 2.56 5.773 5.707a.741.741 0 0 1-.744.733H2.605a.74.74 0 0 1-.744-.733c0-3.147 2.59-5.707 5.773-5.707.514 0 .93-.412.93-.92a.925.925 0 0 0-.93-.92c-4.21 0-7.634 3.388-7.634 7.55C0 24.846 1.17 26 2.605 26h21.787C25.83 26 27 24.846 27 23.425c0-4.162-3.426-7.55-7.634-7.55Z"/>
</symbol><symbol viewBox="0 0 20 20" id="zoom" xmlns="http://www.w3.org/2000/svg">
    <g clip-path="url(#fa)">
        <path d="m19.59 18.574-4.748-4.746a8.253 8.253 0 0 0 1.946-5.334 8.295 8.295 0 1 0-8.294 8.294c2.032 0 3.89-.732 5.334-1.946l4.746 4.746a.717.717 0 0 0 1.016-1.014ZM8.494 15.282a6.786 6.786 0 1 1 0-13.571 6.786 6.786 0 0 1 0 13.571Z"/>
    </g>
    <defs>
        <clipPath id="fa">
            <path d="M0 0h20v20H0z"/>
        </clipPath>
    </defs>
</symbol></svg>