<svg width="48" height="42" viewBox="0 0 48 42" fill="none" xmlns="http://www.w3.org/2000/svg">
<path d="M17.4466 0.260309C17.3189 0.594388 17.5056 2.69727 17.7216 3.39519C18.4095 5.62575 19.8543 7.04127 22.2322 7.78815C22.8807 7.98447 23.1557 8.01423 24.5415 8.00415C25.9762 8.00415 26.1826 7.98447 26.9002 7.73871C27.9812 7.37487 28.8264 6.85407 29.5436 6.09759C30.2708 5.32143 30.7229 4.50543 30.9783 3.48351C31.214 2.55999 31.224 2.08815 31.0076 0.967828L30.8405 0.102867H24.1781C18.144 0.102867 17.5052 0.122549 17.4466 0.260309Z" fill="#323E7D"/>
<path d="M33.1401 0.456661C33.1401 0.485943 33.2088 0.918423 33.3072 1.39986C33.4449 2.15634 33.4449 2.4021 33.3465 3.08034C33.0125 5.26194 31.9512 7.18818 30.4085 8.4165C29.6323 9.02562 28.0598 9.78259 26.9985 10.048C25.8293 10.3331 23.4609 10.3624 22.3109 10.1071C20.2373 9.6453 18.5275 8.63298 17.2305 7.11954C15.9725 5.64546 15.383 4.11234 15.2649 1.95042C15.2256 1.26258 15.1766 0.673145 15.1373 0.643383C15.0485 0.555065 0.877897 7.45362 0.691177 7.6797C0.298057 8.14146 0.327817 8.28882 1.89022 12.7307C2.69614 15.0501 3.42334 17.0647 3.48238 17.1823C3.73774 17.6738 3.8851 17.6935 7.59022 17.6935H11.0299V29.3877C11.0299 38.0061 11.0592 41.141 11.148 41.3176C11.423 41.9267 10.5288 41.8879 24.1982 41.8975C33.5045 41.8975 36.6984 41.8682 36.8553 41.7794C37.3862 41.4943 37.3665 42.0544 37.3665 29.3877V17.6935H40.6094C44.0981 17.6935 44.2651 17.6738 44.5205 17.1823C44.5795 17.0642 45.3067 15.0496 46.1126 12.7307C47.6654 8.2989 47.7048 8.14146 47.3117 7.6893C47.1739 7.52226 33.3768 0.397617 33.2001 0.397617C33.1699 0.397617 33.1401 0.427383 33.1401 0.456661Z" fill="#323E7D"/>
</svg>
