<svg width="31" height="31" viewBox="0 0 31 31" fill="none" xmlns="http://www.w3.org/2000/svg">
<g clip-path="url(#clip0_75_423)">
<path d="M11.9117 0.397756C10.4466 0.682336 9.23082 1.57204 8.56649 2.85916C8.3529 3.27425 8.14551 3.84372 8.14551 4.02755C8.14551 4.08676 8.35321 4.10474 9.1124 4.10474H10.0793L10.2216 3.7904C10.3936 3.40476 11.0936 2.693 11.4848 2.50917C12.0958 2.2125 12.1789 2.20661 15.5061 2.20661C17.333 2.20661 18.7624 2.23048 18.9462 2.26582C19.7469 2.414 20.6131 3.06066 20.9392 3.74855L21.1054 4.09854H22.1017L23.0922 4.10443L23.0565 3.93827C23.0326 3.8493 22.9437 3.5765 22.8488 3.33315C22.3209 1.95117 21.1168 0.883526 19.6223 0.474326C19.1598 0.349706 19.047 0.343817 15.7374 0.332036C13.068 0.320566 12.2378 0.332345 11.9117 0.397756Z" fill="url(#paint0_linear_75_423)"/>
<path d="M7.33298 6.10955C6.9058 6.26362 6.57968 6.50108 6.36609 6.82131C6.18815 7.08822 6.01021 7.5805 6.01021 7.79409C6.01021 7.89484 5.88559 7.90073 3.54292 7.90073C0.796627 7.90073 0.814607 7.90073 0.506157 8.30404L0.345887 8.51174L0.328217 10.297L0.310547 12.0823L6.25976 15.036L12.2028 17.9897L12.3568 17.8654C12.4399 17.8003 12.6414 17.6757 12.8017 17.5867L13.0984 17.4205H15.5002H17.9024L18.1991 17.5867C18.3653 17.6757 18.5609 17.8003 18.6439 17.8654L18.798 17.99L24.7413 15.036L30.6902 12.0823L30.6726 10.297L30.6546 8.51174L30.4946 8.30404C30.1862 7.90073 30.2038 7.90073 27.4638 7.90073H25.0024L24.9667 7.6456C24.8718 7.02281 24.4509 6.45923 23.8693 6.18643C23.5373 6.03236 23.5252 6.03236 22.1138 6.03236H20.6903L20.3818 6.19263C19.8064 6.49519 19.4149 7.02901 19.3259 7.62204L19.2844 7.90073H15.5002H11.7161L11.6804 7.6456C11.5856 7.02281 11.1643 6.45923 10.583 6.18643C10.2628 6.03825 10.2154 6.03236 8.94591 6.01438C7.80728 6.00291 7.59989 6.01469 7.33298 6.10955Z" fill="url(#paint1_linear_75_423)"/>
<path d="M0.328186 22.4561L0.345856 30.0659L0.506126 30.2736C0.844336 30.7185 -0.579183 30.677 15.5718 30.6649L30.0739 30.6469L30.2816 30.4869C30.7144 30.1549 30.6849 30.7777 30.6732 22.3848L30.6552 14.858L24.9791 17.6752L19.3027 20.4925L19.285 22.0407C19.267 23.5532 19.2611 23.5947 19.1188 23.8852C18.935 24.2649 18.5791 24.6208 18.1994 24.8046L17.9027 24.9528H15.5005H13.0983L12.8017 24.8046C12.4219 24.6208 12.0663 24.259 11.8763 23.8852C11.7399 23.5947 11.734 23.5473 11.716 22.0466L11.6984 20.4984L10.4708 19.8874C9.79466 19.5498 7.2322 18.2745 4.77669 17.0587L0.316406 14.8462L0.328186 22.4561Z" fill="url(#paint2_linear_75_423)"/>
<path d="M13.6025 22.1358V23.0847H15.5007H17.3988V22.1358V21.1869H15.5007H13.6025V22.1358Z" fill="url(#paint3_linear_75_423)"/>
</g>
<defs>
<linearGradient id="paint0_linear_75_423" x1="21.7924" y1="4.27172" x2="18.9007" y2="-3.67033" gradientUnits="userSpaceOnUse">
<stop stop-color="#FFA52C"/>
<stop offset="1" stop-color="#E8502B"/>
</linearGradient>
<linearGradient id="paint1_linear_75_423" x1="28.0485" y1="18.5197" x2="15.793" y2="-3.04827" gradientUnits="userSpaceOnUse">
<stop stop-color="#FFA52C"/>
<stop offset="1" stop-color="#E8502B"/>
</linearGradient>
<linearGradient id="paint2_linear_75_423" x1="28.0383" y1="31.3714" x2="9.93831" y2="7.27369" gradientUnits="userSpaceOnUse">
<stop stop-color="#FFA52C"/>
<stop offset="1" stop-color="#E8502B"/>
</linearGradient>
<linearGradient id="paint3_linear_75_423" x1="17.0687" y1="23.1686" x2="14.9249" y2="20.1928" gradientUnits="userSpaceOnUse">
<stop stop-color="#FFA52C"/>
<stop offset="1" stop-color="#E8502B"/>
</linearGradient>
<clipPath id="clip0_75_423">
<rect width="31" height="31" fill="white"/>
</clipPath>
</defs>
</svg>
