<svg width="27" height="23" viewBox="0 0 27 23" fill="none" xmlns="http://www.w3.org/2000/svg">
<path d="M26.73 7.06946C26.73 9.24566 25.6014 11.4597 23.3469 13.7142L14.1507 22.5756C13.9725 22.7511 13.7565 22.8402 13.5 22.8402C13.2435 22.8402 13.0275 22.7511 12.8493 22.5756L3.63692 13.6872C3.53702 13.6089 3.40202 13.4793 3.23192 13.3038C3.05912 13.1256 2.78642 12.8043 2.41112 12.3372C2.03582 11.8701 1.70102 11.3895 1.40672 10.8981C1.11242 10.4067 0.847819 9.80996 0.615619 9.11066C0.383419 8.40866 0.27002 7.73096 0.27002 7.06946C0.27002 4.90406 0.893719 3.21116 2.14652 1.99076C3.39662 0.770356 5.12462 0.160156 7.33052 0.160156C7.94072 0.160156 8.56442 0.265456 9.19892 0.476056C9.83342 0.689356 10.4247 0.972856 10.9701 1.33196C11.5155 1.69106 11.9853 2.02856 12.3795 2.34176C12.771 2.65766 13.1463 2.99246 13.5 3.34616C13.8537 2.99246 14.2263 2.65766 14.6205 2.34176C15.0147 2.02586 15.4845 1.68836 16.0326 1.33196C16.5807 0.972856 17.172 0.686656 17.8038 0.476056C18.4383 0.265456 19.062 0.160156 19.6722 0.160156C21.8781 0.160156 23.6034 0.770356 24.8562 1.99076C26.1063 3.21386 26.73 4.90676 26.73 7.06946ZM24.84 7.06946C24.84 6.27296 24.7347 5.56826 24.5241 4.95806C24.3108 4.34786 24.0408 3.86186 23.7114 3.50546C23.382 3.14636 22.9797 2.85206 22.5072 2.62796C22.032 2.40386 21.573 2.24726 21.1194 2.17166C20.6658 2.09606 20.1825 2.05286 19.6722 2.05286C19.1619 2.05286 18.6084 2.17976 18.0198 2.42816C17.4312 2.67926 16.8858 2.99516 16.389 3.37316C15.8922 3.75386 15.4656 4.10756 15.1119 4.43696C14.7582 4.76636 14.4612 5.06606 14.2263 5.34416C14.0481 5.56016 13.8078 5.66816 13.5027 5.66816C13.1976 5.66816 12.9546 5.56016 12.7791 5.34416C12.5442 5.06876 12.2499 4.76636 11.8935 4.43426C11.5398 4.10486 11.1132 3.75116 10.6164 3.37316C10.1196 2.99246 9.57692 2.67926 8.98562 2.42816C8.39432 2.17706 7.84352 2.05016 7.33322 2.05016C6.82022 2.05016 6.33692 2.09066 5.88602 2.16896C5.43242 2.24996 4.97072 2.40116 4.49822 2.62796C4.02572 2.85476 3.62612 3.14636 3.29402 3.50546C2.96192 3.86456 2.69462 4.35056 2.48132 4.96076C2.26532 5.56826 2.16002 6.27296 2.16002 7.06946C2.16002 8.72186 3.08072 10.4715 4.92212 12.3129L13.5 20.5803L22.0644 12.3264C23.9139 10.4769 24.84 8.72456 24.84 7.06946Z" fill="#606060"/>
</svg>
