<svg width="20" height="20" viewBox="0 0 20 20" fill="none" xmlns="http://www.w3.org/2000/svg">
<g clip-path="url(#clip0_28_90)">
<path d="M19.59 18.5742L14.842 13.8282C16.056 12.3862 16.788 10.5262 16.788 8.49419C16.788 3.9142 13.074 0.200195 8.49395 0.200195C3.91395 0.200195 0.199951 3.9142 0.199951 8.49419C0.199951 13.0742 3.91395 16.7882 8.49395 16.7882C10.526 16.7882 12.384 16.0562 13.828 14.8422L18.574 19.5882C18.854 19.8682 19.308 19.8682 19.588 19.5882C19.87 19.3102 19.87 18.8562 19.59 18.5742ZM8.49395 15.2822C4.74595 15.2822 1.70795 12.2442 1.70795 8.49619C1.70795 4.7482 4.74595 1.7102 8.49395 1.7102C12.242 1.7102 15.28 4.7482 15.28 8.49619C15.28 12.2422 12.242 15.2822 8.49395 15.2822Z" fill="#606060"/>
</g>
<defs>
<clipPath id="clip0_28_90">
<rect width="20" height="20" fill="white"/>
</clipPath>
</defs>
</svg>
